26F Galaxy Sans-Hairline.ufo
<glyph name="exclam" format="2">
	<advance width="245"/>
	<unicode hex="0021"/>
	<outline>
		<contour>
			<point x="122" y="0" type="curve" smooth="yes"/>
			<point x="143" y="0"/>
			<point x="160" y="17"/>
			<point x="160" y="38" type="curve" smooth="yes"/>
			<point x="160" y="58"/>
			<point x="143" y="75"/>
			<point x="122" y="75" type="curve" smooth="yes"/>
			<point x="102" y="75"/>
			<point x="85" y="58"/>
			<point x="85" y="38" type="curve" smooth="yes"/>
			<point x="85" y="17"/>
			<point x="102" y="0"/>
		</contour>
		<contour>
			<point x="97" y="1375" type="curve" smooth="yes"/>
			<point x="97" y="382" type="line" smooth="yes"/>
			<point x="97" y="368"/>
			<point x="108" y="357"/>
			<point x="122" y="357" type="curve" smooth="yes"/>
			<point x="136" y="357"/>
			<point x="147" y="368"/>
			<point x="147" y="382" type="curve" smooth="yes"/>
			<point x="147" y="1375" type="line" smooth="yes"/>
			<point x="147" y="1388"/>
			<point x="136" y="1400"/>
			<point x="122" y="1400" type="curve" smooth="yes"/>
			<point x="108" y="1400"/>
			<point x="97" y="1388"/>
		</contour>
	</outline>
</glyph>
<glyph name="percent" format="2">
	<advance width="1309"/>
	<unicode hex="0025"/>
	<outline>
		<contour>
			<point x="399" y="820" type="curve" smooth="yes"/>
			<point x="253" y="820"/>
			<point x="135" y="939"/>
			<point x="135" y="1085" type="curve" smooth="yes"/>
			<point x="135" y="1231"/>
			<point x="253" y="1350"/>
			<point x="399" y="1350" type="curve" smooth="yes"/>
			<point x="413" y="1350"/>
			<point x="424" y="1361"/>
			<point x="424" y="1375" type="curve" smooth="yes"/>
			<point x="424" y="1389"/>
			<point x="413" y="1400"/>
			<point x="399" y="1400" type="curve" smooth="yes"/>
			<point x="225" y="1400"/>
			<point x="85" y="1258"/>
			<point x="85" y="1085" type="curve" smooth="yes"/>
			<point x="85" y="912"/>
			<point x="225" y="770"/>
			<point x="399" y="770" type="curve" smooth="yes"/>
			<point x="413" y="770"/>
			<point x="424" y="781"/>
			<point x="424" y="795" type="curve" smooth="yes"/>
			<point x="424" y="809"/>
			<point x="413" y="820"/>
		</contour>
		<contour>
			<point x="1115" y="1389" type="curve"/>
			<point x="154" y="40" type="line" smooth="yes"/>
			<point x="151" y="36"/>
			<point x="149" y="31"/>
			<point x="149" y="25" type="curve" smooth="yes"/>
			<point x="149" y="12"/>
			<point x="160" y="0"/>
			<point x="174" y="0" type="curve" smooth="yes"/>
			<point x="182" y="0"/>
			<point x="190" y="4"/>
			<point x="194" y="11" type="curve"/>
			<point x="1155" y="1360" type="line" smooth="yes"/>
			<point x="1158" y="1364"/>
			<point x="1160" y="1369"/>
			<point x="1160" y="1375" type="curve" smooth="yes"/>
			<point x="1160" y="1388"/>
			<point x="1149" y="1400"/>
			<point x="1135" y="1400" type="curve" smooth="yes"/>
			<point x="1127" y="1400"/>
			<point x="1119" y="1396"/>
		</contour>
		<contour>
			<point x="910" y="580" type="curve" smooth="yes"/>
			<point x="1056" y="580"/>
			<point x="1174" y="461"/>
			<point x="1174" y="315" type="curve" smooth="yes"/>
			<point x="1174" y="169"/>
			<point x="1056" y="50"/>
			<point x="910" y="50" type="curve" smooth="yes"/>
			<point x="896" y="50"/>
			<point x="885" y="39"/>
			<point x="885" y="25" type="curve" smooth="yes"/>
			<point x="885" y="11"/>
			<point x="896" y="0"/>
			<point x="910" y="0" type="curve" smooth="yes"/>
			<point x="1084" y="0"/>
			<point x="1224" y="142"/>
			<point x="1224" y="315" type="curve" smooth="yes"/>
			<point x="1224" y="488"/>
			<point x="1084" y="630"/>
			<point x="910" y="630" type="curve" smooth="yes"/>
			<point x="896" y="630"/>
			<point x="885" y="619"/>
			<point x="885" y="605" type="curve" smooth="yes"/>
			<point x="885" y="591"/>
			<point x="896" y="580"/>
		</contour>
	</outline>
</glyph>
<glyph name="plus" format="2">
	<advance width="981"/>
	<unicode hex="002B"/>
	<outline>
		<contour>
			<point x="75" y="675" type="curve" smooth="yes"/>
			<point x="293" y="675" type="line" smooth="yes"/>
			<point x="306" y="675"/>
			<point x="318" y="686"/>
			<point x="318" y="700" type="curve" smooth="yes"/>
			<point x="318" y="714"/>
			<point x="306" y="725"/>
			<point x="293" y="725" type="curve" smooth="yes"/>
			<point x="75" y="725" type="line" smooth="yes"/>
			<point x="61" y="725"/>
			<point x="50" y="714"/>
			<point x="50" y="700" type="curve" smooth="yes"/>
			<point x="50" y="686"/>
			<point x="61" y="675"/>
		</contour>
		<contour>
			<point x="515" y="286" type="curve" smooth="yes"/>
			<point x="515" y="1116" type="line" smooth="yes"/>
			<point x="515" y="1129"/>
			<point x="504" y="1141"/>
			<point x="490" y="1141" type="curve" smooth="yes"/>
			<point x="476" y="1141"/>
			<point x="465" y="1129"/>
			<point x="465" y="1116" type="curve" smooth="yes"/>
			<point x="465" y="286" type="line" smooth="yes"/>
			<point x="465" y="272"/>
			<point x="476" y="261"/>
			<point x="490" y="261" type="curve" smooth="yes"/>
			<point x="504" y="261"/>
			<point x="515" y="272"/>
		</contour>
		<contour>
			<point x="688" y="675" type="curve" smooth="yes"/>
			<point x="906" y="675" type="line" smooth="yes"/>
			<point x="919" y="675"/>
			<point x="931" y="686"/>
			<point x="931" y="700" type="curve" smooth="yes"/>
			<point x="931" y="714"/>
			<point x="919" y="725"/>
			<point x="906" y="725" type="curve" smooth="yes"/>
			<point x="688" y="725" type="line" smooth="yes"/>
			<point x="674" y="725"/>
			<point x="663" y="714"/>
			<point x="663" y="700" type="curve" smooth="yes"/>
			<point x="663" y="686"/>
			<point x="674" y="675"/>
		</contour>
	</outline>
</glyph>
<glyph name="comma" format="2">
	<advance width="309"/>
	<unicode hex="002C"/>
	<outline>
		<contour>
			<point x="108" y="-187" type="curve" smooth="yes"/>
			<point x="121" y="-187"/>
			<point x="131" y="-178"/>
			<point x="134" y="-166" type="curve" smooth="yes"/>
			<point x="228" y="186" type="line" smooth="yes"/>
			<point x="232" y="203"/>
			<point x="220" y="220"/>
			<point x="201" y="220" type="curve" smooth="yes"/>
			<point x="188" y="220"/>
			<point x="178" y="211"/>
			<point x="175" y="199" type="curve" smooth="yes"/>
			<point x="81" y="-153" type="line" smooth="yes"/>
			<point x="77" y="-170"/>
			<point x="89" y="-187"/>
		</contour>
	</outline>
</glyph>
<glyph name="period" format="2">
	<advance width="235"/>
	<unicode hex="002E"/>
	<outline>
		<contour>
			<point x="118" y="0" type="curve" smooth="yes"/>
			<point x="138" y="0"/>
			<point x="155" y="17"/>
			<point x="155" y="38" type="curve" smooth="yes"/>
			<point x="155" y="58"/>
			<point x="138" y="75"/>
			<point x="118" y="75" type="curve" smooth="yes"/>
			<point x="97" y="75"/>
			<point x="80" y="58"/>
			<point x="80" y="38" type="curve" smooth="yes"/>
			<point x="80" y="17"/>
			<point x="97" y="0"/>
		</contour>
	</outline>
</glyph>
<glyph name="three" format="2">
	<advance width="774"/>
	<unicode hex="0033"/>
	<outline>
		<contour>
			<point x="644" y="307" type="curve" smooth="yes"/>
			<point x="644" y="165"/>
			<point x="529" y="50"/>
			<point x="387" y="50" type="curve" smooth="yes"/>
			<point x="245" y="50"/>
			<point x="130" y="165"/>
			<point x="130" y="307" type="curve" smooth="yes"/>
			<point x="130" y="321"/>
			<point x="119" y="332"/>
			<point x="105" y="332" type="curve" smooth="yes"/>
			<point x="91" y="332"/>
			<point x="80" y="321"/>
			<point x="80" y="307" type="curve" smooth="yes"/>
			<point x="80" y="137"/>
			<point x="217" y="0"/>
			<point x="387" y="0" type="curve" smooth="yes"/>
			<point x="557" y="0"/>
			<point x="694" y="137"/>
			<point x="694" y="307" type="curve" smooth="yes"/>
			<point x="694" y="321"/>
			<point x="683" y="332"/>
			<point x="669" y="332" type="curve" smooth="yes"/>
			<point x="655" y="332"/>
			<point x="644" y="321"/>
		</contour>
		<contour>
			<point x="130" y="1093" type="curve" smooth="yes"/>
			<point x="130" y="1235"/>
			<point x="245" y="1350"/>
			<point x="387" y="1350" type="curve" smooth="yes"/>
			<point x="529" y="1350"/>
			<point x="644" y="1235"/>
			<point x="644" y="1093" type="curve" smooth="yes"/>
			<point x="644" y="951"/>
			<point x="529" y="836"/>
			<point x="387" y="836" type="curve" smooth="yes"/>
			<point x="373" y="836"/>
			<point x="362" y="825"/>
			<point x="362" y="811" type="curve" smooth="yes"/>
			<point x="362" y="797"/>
			<point x="373" y="786"/>
			<point x="387" y="786" type="curve" smooth="yes"/>
			<point x="557" y="786"/>
			<point x="694" y="923"/>
			<point x="694" y="1093" type="curve" smooth="yes"/>
			<point x="694" y="1263"/>
			<point x="557" y="1400"/>
			<point x="387" y="1400" type="curve" smooth="yes"/>
			<point x="217" y="1400"/>
			<point x="80" y="1263"/>
			<point x="80" y="1093" type="curve" smooth="yes"/>
			<point x="80" y="1079"/>
			<point x="91" y="1068"/>
			<point x="105" y="1068" type="curve" smooth="yes"/>
			<point x="119" y="1068"/>
			<point x="130" y="1079"/>
		</contour>
	</outline>
</glyph>
<glyph name="four" format="2">
	<advance width="774"/>
	<unicode hex="0034"/>
	<outline>
		<contour>
			<point x="435" y="425" type="curve" smooth="yes"/>
			<point x="69" y="425" type="line" smooth="yes"/>
			<point x="55" y="425"/>
			<point x="44" y="414"/>
			<point x="44" y="400" type="curve" smooth="yes"/>
			<point x="44" y="386"/>
			<point x="55" y="375"/>
			<point x="69" y="375" type="curve" smooth="yes"/>
			<point x="435" y="375" type="line" smooth="yes"/>
			<point x="449" y="375"/>
			<point x="460" y="386"/>
			<point x="460" y="400" type="curve" smooth="yes"/>
			<point x="460" y="414"/>
			<point x="449" y="425"/>
		</contour>
		<contour>
			<point x="670" y="1000" type="curve" smooth="yes"/>
			<point x="670" y="26" type="line" smooth="yes"/>
			<point x="670" y="12"/>
			<point x="681" y="1"/>
			<point x="695" y="1" type="curve" smooth="yes"/>
			<point x="709" y="1"/>
			<point x="720" y="12"/>
			<point x="720" y="26" type="curve" smooth="yes"/>
			<point x="720" y="1000" type="line" smooth="yes"/>
			<point x="720" y="1014"/>
			<point x="709" y="1025"/>
			<point x="695" y="1025" type="curve" smooth="yes"/>
			<point x="681" y="1025"/>
			<point x="670" y="1014"/>
		</contour>
		<contour>
			<point x="91" y="389" type="curve" smooth="yes"/>
			<point x="546" y="1364" type="line"/>
			<point x="548" y="1367"/>
			<point x="548" y="1371"/>
			<point x="548" y="1375" type="curve" smooth="yes"/>
			<point x="548" y="1388"/>
			<point x="537" y="1400"/>
			<point x="523" y="1400" type="curve" smooth="yes"/>
			<point x="514" y="1400"/>
			<point x="505" y="1394"/>
			<point x="501" y="1386" type="curve" smooth="yes"/>
			<point x="45" y="411" type="line"/>
			<point x="44" y="407"/>
			<point x="43" y="404"/>
			<point x="43" y="400" type="curve" smooth="yes"/>
			<point x="43" y="386"/>
			<point x="54" y="375"/>
			<point x="68" y="375" type="curve" smooth="yes"/>
			<point x="78" y="375"/>
			<point x="87" y="381"/>
		</contour>
	</outline>
</glyph>
<glyph name="five" format="2">
	<advance width="774"/>
	<unicode hex="0035"/>
	<outline>
		<contour>
			<point x="398" y="758" type="curve" smooth="yes"/>
			<point x="559" y="758"/>
			<point x="689" y="628"/>
			<point x="689" y="467" type="curve" smooth="yes"/>
			<point x="689" y="341" type="line" smooth="yes"/>
			<point x="689" y="180"/>
			<point x="559" y="50"/>
			<point x="398" y="50" type="curve" smooth="yes"/>
			<point x="237" y="50"/>
			<point x="107" y="180"/>
			<point x="107" y="341" type="curve" smooth="yes"/>
			<point x="107" y="355"/>
			<point x="96" y="366"/>
			<point x="82" y="366" type="curve" smooth="yes"/>
			<point x="68" y="366"/>
			<point x="57" y="355"/>
			<point x="57" y="341" type="curve" smooth="yes"/>
			<point x="57" y="152"/>
			<point x="209" y="0"/>
			<point x="398" y="0" type="curve" smooth="yes"/>
			<point x="587" y="0"/>
			<point x="739" y="152"/>
			<point x="739" y="341" type="curve" smooth="yes"/>
			<point x="739" y="467" type="line" smooth="yes"/>
			<point x="739" y="656"/>
			<point x="587" y="808"/>
			<point x="398" y="808" type="curve" smooth="yes"/>
			<point x="384" y="808"/>
			<point x="373" y="797"/>
			<point x="373" y="783" type="curve" smooth="yes"/>
			<point x="373" y="769"/>
			<point x="384" y="758"/>
		</contour>
		<contour>
			<point x="106" y="880" type="curve" smooth="yes"/>
			<point x="106" y="1378" type="line"/>
			<point x="56" y="1378" type="line"/>
			<point x="56" y="880" type="line" smooth="yes"/>
			<point x="56" y="866"/>
			<point x="67" y="855"/>
			<point x="81" y="855" type="curve" smooth="yes"/>
			<point x="95" y="855"/>
			<point x="106" y="866"/>
		</contour>
		<contour>
			<point x="81" y="1350" type="curve" smooth="yes"/>
			<point x="714" y="1350" type="line" smooth="yes"/>
			<point x="727" y="1350"/>
			<point x="739" y="1361"/>
			<point x="739" y="1375" type="curve" smooth="yes"/>
			<point x="739" y="1389"/>
			<point x="727" y="1400"/>
			<point x="714" y="1400" type="curve" smooth="yes"/>
			<point x="81" y="1400" type="line" smooth="yes"/>
			<point x="67" y="1400"/>
			<point x="56" y="1389"/>
			<point x="56" y="1375" type="curve" smooth="yes"/>
			<point x="56" y="1361"/>
			<point x="67" y="1350"/>
		</contour>
	</outline>
</glyph>
<glyph name="six" format="2">
	<advance width="774"/>
	<unicode hex="0036"/>
	<outline>
		<contour>
			<point x="387" y="50" type="curve" smooth="yes"/>
			<point x="231" y="50"/>
			<point x="103" y="176"/>
			<point x="103" y="334" type="curve" smooth="yes"/>
			<point x="103" y="490"/>
			<point x="231" y="618"/>
			<point x="387" y="618" type="curve" smooth="yes"/>
			<point x="543" y="618"/>
			<point x="671" y="490"/>
			<point x="671" y="334" type="curve" smooth="yes"/>
			<point x="671" y="176"/>
			<point x="543" y="50"/>
		</contour>
		<contour>
			<point x="387" y="0" type="curve" smooth="yes"/>
			<point x="570" y="0"/>
			<point x="721" y="148"/>
			<point x="721" y="334" type="curve" smooth="yes"/>
			<point x="721" y="518"/>
			<point x="571" y="668"/>
			<point x="387" y="668" type="curve" smooth="yes"/>
			<point x="203" y="668"/>
			<point x="53" y="518"/>
			<point x="53" y="334" type="curve" smooth="yes"/>
			<point x="53" y="148"/>
			<point x="204" y="0"/>
		</contour>
		<contour>
			<point x="520" y="1387" type="curve" smooth="yes"/>
			<point x="275" y="922" type="line" smooth="yes"/>
			<point x="273" y="918"/>
			<point x="272" y="914"/>
			<point x="272" y="910" type="curve" smooth="yes"/>
			<point x="272" y="896"/>
			<point x="283" y="885"/>
			<point x="297" y="885" type="curve" smooth="yes"/>
			<point x="307" y="885"/>
			<point x="315" y="890"/>
			<point x="319" y="898" type="curve" smooth="yes"/>
			<point x="563" y="1363" type="line" smooth="yes"/>
			<point x="565" y="1367"/>
			<point x="567" y="1371"/>
			<point x="567" y="1375" type="curve" smooth="yes"/>
			<point x="567" y="1389"/>
			<point x="555" y="1400"/>
			<point x="542" y="1400" type="curve" smooth="yes"/>
			<point x="532" y="1400"/>
			<point x="524" y="1395"/>
		</contour>
	</outline>
</glyph>
<glyph name="seven" format="2">
	<advance width="774"/>
	<unicode hex="0037"/>
	<outline>
		<contour>
			<point x="220" y="0" type="curve" smooth="yes"/>
			<point x="230" y="0"/>
			<point x="240" y="7"/>
			<point x="243" y="16" type="curve" smooth="yes"/>
			<point x="729" y="1366" type="line" smooth="yes"/>
			<point x="734" y="1380"/>
			<point x="725" y="1400"/>
			<point x="705" y="1400" type="curve" smooth="yes"/>
			<point x="695" y="1400"/>
			<point x="685" y="1393"/>
			<point x="682" y="1384" type="curve" smooth="yes"/>
			<point x="196" y="34" type="line" smooth="yes"/>
			<point x="191" y="20"/>
			<point x="200" y="0"/>
		</contour>
		<contour>
			<point x="419" y="1400" type="curve" smooth="yes"/>
			<point x="84" y="1400" type="line" smooth="yes"/>
			<point x="70" y="1400"/>
			<point x="59" y="1389"/>
			<point x="59" y="1375" type="curve" smooth="yes"/>
			<point x="59" y="1361"/>
			<point x="70" y="1350"/>
			<point x="84" y="1350" type="curve" smooth="yes"/>
			<point x="419" y="1350" type="line" smooth="yes"/>
			<point x="432" y="1350"/>
			<point x="444" y="1361"/>
			<point x="444" y="1375" type="curve" smooth="yes"/>
			<point x="444" y="1389"/>
			<point x="432" y="1400"/>
		</contour>
	</outline>
</glyph>
<glyph name="eight" format="2">
	<advance width="774"/>
	<unicode hex="0038"/>
	<outline>
		<contour>
			<point x="694" y="307" type="curve" smooth="yes"/>
			<point x="694" y="165"/>
			<point x="579" y="50"/>
			<point x="437" y="50" type="curve" smooth="yes"/>
			<point x="423" y="50"/>
			<point x="412" y="39"/>
			<point x="412" y="25" type="curve" smooth="yes"/>
			<point x="412" y="11"/>
			<point x="423" y="0"/>
			<point x="437" y="0" type="curve" smooth="yes"/>
			<point x="607" y="0"/>
			<point x="744" y="137"/>
			<point x="744" y="307" type="curve" smooth="yes"/>
			<point x="744" y="321"/>
			<point x="733" y="332"/>
			<point x="719" y="332" type="curve" smooth="yes"/>
			<point x="705" y="332"/>
			<point x="694" y="321"/>
		</contour>
		<contour>
			<point x="644" y="982" type="curve" smooth="yes"/>
			<point x="644" y="836"/>
			<point x="533" y="725"/>
			<point x="387" y="725" type="curve" smooth="yes"/>
			<point x="217" y="725"/>
			<point x="80" y="588"/>
			<point x="80" y="418" type="curve" smooth="yes"/>
			<point x="80" y="404"/>
			<point x="91" y="393"/>
			<point x="105" y="393" type="curve" smooth="yes"/>
			<point x="119" y="393"/>
			<point x="130" y="404"/>
			<point x="130" y="418" type="curve" smooth="yes"/>
			<point x="130" y="564"/>
			<point x="241" y="675"/>
			<point x="387" y="675" type="curve" smooth="yes"/>
			<point x="557" y="675"/>
			<point x="694" y="812"/>
			<point x="694" y="982" type="curve" smooth="yes"/>
			<point x="694" y="996"/>
			<point x="683" y="1007"/>
			<point x="669" y="1007" type="curve" smooth="yes"/>
			<point x="655" y="1007"/>
			<point x="644" y="996"/>
		</contour>
		<contour>
			<point x="130" y="1093" type="curve" smooth="yes"/>
			<point x="130" y="1235"/>
			<point x="245" y="1350"/>
			<point x="387" y="1350" type="curve" smooth="yes"/>
			<point x="401" y="1350"/>
			<point x="412" y="1361"/>
			<point x="412" y="1375" type="curve" smooth="yes"/>
			<point x="412" y="1389"/>
			<point x="401" y="1400"/>
			<point x="387" y="1400" type="curve" smooth="yes"/>
			<point x="217" y="1400"/>
			<point x="80" y="1263"/>
			<point x="80" y="1093" type="curve" smooth="yes"/>
			<point x="80" y="1079"/>
			<point x="91" y="1068"/>
			<point x="105" y="1068" type="curve" smooth="yes"/>
			<point x="119" y="1068"/>
			<point x="130" y="1079"/>
		</contour>
	</outline>
</glyph>
<glyph name="equal" format="2">
	<advance width="981"/>
	<unicode hex="003D"/>
	<outline>
		<contour>
			<point x="906" y="480" type="curve" smooth="yes"/>
			<point x="76" y="480" type="line" smooth="yes"/>
			<point x="62" y="480"/>
			<point x="51" y="469"/>
			<point x="51" y="455" type="curve" smooth="yes"/>
			<point x="51" y="441"/>
			<point x="62" y="430"/>
			<point x="76" y="430" type="curve" smooth="yes"/>
			<point x="906" y="430" type="line" smooth="yes"/>
			<point x="919" y="430"/>
			<point x="931" y="441"/>
			<point x="931" y="455" type="curve" smooth="yes"/>
			<point x="931" y="469"/>
			<point x="919" y="480"/>
		</contour>
		<contour>
			<point x="906" y="970" type="curve" smooth="yes"/>
			<point x="76" y="970" type="line" smooth="yes"/>
			<point x="62" y="970"/>
			<point x="51" y="959"/>
			<point x="51" y="945" type="curve" smooth="yes"/>
			<point x="51" y="931"/>
			<point x="62" y="920"/>
			<point x="76" y="920" type="curve" smooth="yes"/>
			<point x="906" y="920" type="line" smooth="yes"/>
			<point x="919" y="920"/>
			<point x="931" y="931"/>
			<point x="931" y="945" type="curve" smooth="yes"/>
			<point x="931" y="959"/>
			<point x="919" y="970"/>
		</contour>
	</outline>
</glyph>
<glyph name="at" format="2">
	<advance width="1356"/>
	<unicode hex="0040"/>
	<outline>
		<contour>
			<point x="747" y="471" type="curve" smooth="yes"/>
			<point x="620" y="471"/>
			<point x="518" y="573"/>
			<point x="518" y="700" type="curve" smooth="yes"/>
			<point x="518" y="827"/>
			<point x="620" y="929"/>
			<point x="747" y="929" type="curve" smooth="yes"/>
			<point x="874" y="929"/>
			<point x="976" y="827"/>
			<point x="976" y="700" type="curve" smooth="yes"/>
			<point x="976" y="573"/>
			<point x="874" y="471"/>
		</contour>
		<contour>
			<point x="747" y="421" type="curve" smooth="yes"/>
			<point x="902" y="421"/>
			<point x="1026" y="545"/>
			<point x="1026" y="700" type="curve" smooth="yes"/>
			<point x="1026" y="855"/>
			<point x="902" y="979"/>
			<point x="747" y="979" type="curve" smooth="yes"/>
			<point x="592" y="979"/>
			<point x="468" y="855"/>
			<point x="468" y="700" type="curve" smooth="yes"/>
			<point x="468" y="545"/>
			<point x="592" y="421"/>
		</contour>
		<contour>
			<point x="1246" y="43" type="curve" smooth="yes"/>
			<point x="767" y="43" type="line" smooth="yes"/>
			<point x="599" y="43"/>
			<point x="433" y="106"/>
			<point x="305" y="234" type="curve" smooth="yes"/>
			<point x="50" y="489"/>
			<point x="50" y="904"/>
			<point x="305" y="1159" type="curve" smooth="yes"/>
			<point x="555" y="1409"/>
			<point x="957" y="1414"/>
			<point x="1214" y="1173" type="curve" smooth="yes"/>
			<point x="1219" y="1169"/>
			<point x="1225" y="1166"/>
			<point x="1232" y="1166" type="curve" smooth="yes"/>
			<point x="1245" y="1166"/>
			<point x="1257" y="1178"/>
			<point x="1257" y="1191" type="curve" smooth="yes"/>
			<point x="1257" y="1199"/>
			<point x="1253" y="1205"/>
			<point x="1249" y="1210" type="curve"/>
			<point x="972" y="1469"/>
			<point x="539" y="1463"/>
			<point x="270" y="1194" type="curve" smooth="yes"/>
			<point x="-5" y="920"/>
			<point x="-5" y="473"/>
			<point x="270" y="199" type="curve" smooth="yes"/>
			<point x="407" y="61"/>
			<point x="587" y="-7"/>
			<point x="767" y="-7" type="curve" smooth="yes"/>
			<point x="1246" y="-7" type="line" smooth="yes"/>
			<point x="1259" y="-7"/>
			<point x="1271" y="4"/>
			<point x="1271" y="18" type="curve" smooth="yes"/>
			<point x="1271" y="32"/>
			<point x="1259" y="43"/>
		</contour>
	</outline>
</glyph>
<glyph name="A" format="2">
	<advance width="1352"/>
	<unicode hex="0041"/>
	<unicode hex="0061"/>
	<anchor x="676" y="0" name="bottom"/>
	<anchor x="1267" y="0" name="ogonek"/>
	<anchor x="676" y="1400" name="top"/>
	<outline>
		<contour>
			<point x="108" y="14" type="curve" smooth="yes"/>
			<point x="389" y="681" type="line"/>
			<point x="391" y="684"/>
			<point x="391" y="687"/>
			<point x="391" y="690" type="curve" smooth="yes"/>
			<point x="391" y="704"/>
			<point x="380" y="715"/>
			<point x="366" y="715" type="curve" smooth="yes"/>
			<point x="356" y="715"/>
			<point x="347" y="709"/>
			<point x="343" y="701" type="curve" smooth="yes"/>
			<point x="62" y="34" type="line"/>
			<point x="60" y="31"/>
			<point x="60" y="28"/>
			<point x="60" y="25" type="curve" smooth="yes"/>
			<point x="60" y="11"/>
			<point x="71" y="0"/>
			<point x="85" y="0" type="curve" smooth="yes"/>
			<point x="95" y="0"/>
			<point x="104" y="6"/>
		</contour>
		<contour>
			<point x="1285" y="47" type="curve" smooth="yes"/>
			<point x="711" y="1386" type="line" smooth="yes"/>
			<point x="707" y="1394"/>
			<point x="698" y="1400"/>
			<point x="688" y="1400" type="curve" smooth="yes"/>
			<point x="674" y="1400"/>
			<point x="663" y="1389"/>
			<point x="663" y="1375" type="curve" smooth="yes"/>
			<point x="663" y="1372"/>
			<point x="664" y="1368"/>
			<point x="670" y="1353" type="curve" smooth="yes"/>
			<point x="1244" y="14" type="line" smooth="yes"/>
			<point x="1248" y="6"/>
			<point x="1257" y="0"/>
			<point x="1267" y="0" type="curve" smooth="yes"/>
			<point x="1281" y="0"/>
			<point x="1292" y="11"/>
			<point x="1292" y="25" type="curve" smooth="yes"/>
			<point x="1292" y="28"/>
			<point x="1291" y="32"/>
		</contour>
	</outline>
</glyph>
<glyph name="C" format="2">
	<advance width="1188"/>
	<unicode hex="0043"/>
	<unicode hex="0063"/>
	<anchor x="594" y="0" name="bottom"/>
	<anchor x="694" y="1400" name="top"/>
	<outline>
		<contour>
			<point x="764" y="0" type="curve" smooth="yes"/>
			<point x="1118" y="0" type="line" smooth="yes"/>
			<point x="1132" y="0"/>
			<point x="1143" y="11"/>
			<point x="1143" y="25" type="curve" smooth="yes"/>
			<point x="1143" y="39"/>
			<point x="1132" y="50"/>
			<point x="1118" y="50" type="curve" smooth="yes"/>
			<point x="764" y="50" type="line" smooth="yes"/>
			<point x="405" y="50"/>
			<point x="114" y="341"/>
			<point x="114" y="700" type="curve" smooth="yes"/>
			<point x="114" y="1052"/>
			<point x="393" y="1338"/>
			<point x="742" y="1350" type="curve" smooth="yes"/>
			<point x="756" y="1350"/>
			<point x="767" y="1361"/>
			<point x="767" y="1375" type="curve" smooth="yes"/>
			<point x="767" y="1389"/>
			<point x="754" y="1400"/>
			<point x="741" y="1400" type="curve" smooth="yes"/>
			<point x="365" y="1387"/>
			<point x="64" y="1079"/>
			<point x="64" y="700" type="curve" smooth="yes"/>
			<point x="64" y="313"/>
			<point x="377" y="0"/>
		</contour>
		<contour>
			<point x="1119" y="1350" type="curve" smooth="yes"/>
			<point x="1133" y="1350"/>
			<point x="1144" y="1361"/>
			<point x="1144" y="1375" type="curve" smooth="yes"/>
			<point x="1144" y="1389"/>
			<point x="1133" y="1400"/>
			<point x="1119" y="1400" type="curve" smooth="yes"/>
			<point x="1105" y="1400"/>
			<point x="1094" y="1389"/>
			<point x="1094" y="1375" type="curve" smooth="yes"/>
			<point x="1094" y="1361"/>
			<point x="1105" y="1350"/>
		</contour>
	</outline>
</glyph>
<glyph name="G" format="2">
	<advance width="1346"/>
	<unicode hex="0047"/>
	<unicode hex="0067"/>
	<anchor x="686" y="0" name="bottom"/>
	<anchor x="746" y="1400" name="top"/>
	<outline>
		<contour>
			<point x="764" y="50" type="curve" smooth="yes"/>
			<point x="405" y="50"/>
			<point x="114" y="341"/>
			<point x="114" y="700" type="curve" smooth="yes"/>
			<point x="114" y="1059"/>
			<point x="405" y="1350"/>
			<point x="764" y="1350" type="curve" smooth="yes"/>
			<point x="1236" y="1350" type="line" smooth="yes"/>
			<point x="1249" y="1350"/>
			<point x="1261" y="1361"/>
			<point x="1261" y="1375" type="curve" smooth="yes"/>
			<point x="1261" y="1389"/>
			<point x="1249" y="1400"/>
			<point x="1236" y="1400" type="curve" smooth="yes"/>
			<point x="764" y="1400" type="line" smooth="yes"/>
			<point x="377" y="1400"/>
			<point x="64" y="1087"/>
			<point x="64" y="700" type="curve" smooth="yes"/>
			<point x="64" y="313"/>
			<point x="377" y="0"/>
			<point x="764" y="0" type="curve" smooth="yes"/>
			<point x="778" y="0"/>
			<point x="789" y="11"/>
			<point x="789" y="25" type="curve" smooth="yes"/>
			<point x="789" y="39"/>
			<point x="778" y="50"/>
		</contour>
		<contour>
			<point x="1258" y="25" type="curve" smooth="yes"/>
			<point x="1258" y="608" type="line" smooth="yes"/>
			<point x="1258" y="622"/>
			<point x="1247" y="633"/>
			<point x="1233" y="633" type="curve" smooth="yes"/>
			<point x="1219" y="633"/>
			<point x="1208" y="622"/>
			<point x="1208" y="608" type="curve" smooth="yes"/>
			<point x="1208" y="25" type="line" smooth="yes"/>
			<point x="1208" y="11"/>
			<point x="1219" y="0"/>
			<point x="1233" y="0" type="curve" smooth="yes"/>
			<point x="1247" y="0"/>
			<point x="1258" y="11"/>
		</contour>
	</outline>
</glyph>
<glyph name="H" format="2">
	<advance width="1226"/>
	<unicode hex="0048"/>
	<unicode hex="0068"/>
	<anchor x="613" y="0" name="bottom"/>
	<anchor x="613" y="700" name="center"/>
	<anchor x="613" y="1400" name="top"/>
	<anchor x="5" y="1400" name="topleft"/>
	<outline>
		<contour>
			<point x="135" y="26" type="curve" smooth="yes"/>
			<point x="135" y="383" type="line" smooth="yes"/>
			<point x="135" y="396"/>
			<point x="124" y="408"/>
			<point x="110" y="408" type="curve" smooth="yes"/>
			<point x="96" y="408"/>
			<point x="85" y="396"/>
			<point x="85" y="383" type="curve" smooth="yes"/>
			<point x="85" y="26" type="line" smooth="yes"/>
			<point x="85" y="12"/>
			<point x="96" y="1"/>
			<point x="110" y="1" type="curve" smooth="yes"/>
			<point x="124" y="1"/>
			<point x="135" y="12"/>
		</contour>
		<contour>
			<point x="85" y="1375" type="curve" smooth="yes"/>
			<point x="85" y="700" type="line" smooth="yes"/>
			<point x="85" y="686"/>
			<point x="96" y="675"/>
			<point x="110" y="675" type="curve" smooth="yes"/>
			<point x="124" y="675"/>
			<point x="135" y="686"/>
			<point x="135" y="700" type="curve" smooth="yes"/>
			<point x="135" y="1375" type="line" smooth="yes"/>
			<point x="135" y="1388"/>
			<point x="124" y="1400"/>
			<point x="110" y="1400" type="curve" smooth="yes"/>
			<point x="96" y="1400"/>
			<point x="85" y="1388"/>
		</contour>
		<contour>
			<point x="1116" y="725" type="line"/>
			<point x="110" y="725" type="line"/>
			<point x="110" y="675" type="line"/>
			<point x="1116" y="675" type="line"/>
		</contour>
		<contour>
			<point x="1091" y="700" type="curve" smooth="yes"/>
			<point x="1091" y="26" type="line" smooth="yes"/>
			<point x="1091" y="12"/>
			<point x="1102" y="1"/>
			<point x="1116" y="1" type="curve" smooth="yes"/>
			<point x="1130" y="1"/>
			<point x="1141" y="12"/>
			<point x="1141" y="26" type="curve" smooth="yes"/>
			<point x="1141" y="700" type="line" smooth="yes"/>
			<point x="1141" y="714"/>
			<point x="1130" y="725"/>
			<point x="1116" y="725" type="curve" smooth="yes"/>
			<point x="1102" y="725"/>
			<point x="1091" y="714"/>
		</contour>
		<contour>
			<point x="1141" y="1018" type="curve" smooth="yes"/>
			<point x="1141" y="1375" type="line" smooth="yes"/>
			<point x="1141" y="1388"/>
			<point x="1130" y="1400"/>
			<point x="1116" y="1400" type="curve" smooth="yes"/>
			<point x="1102" y="1400"/>
			<point x="1091" y="1388"/>
			<point x="1091" y="1375" type="curve" smooth="yes"/>
			<point x="1091" y="1018" type="line" smooth="yes"/>
			<point x="1091" y="1004"/>
			<point x="1102" y="993"/>
			<point x="1116" y="993" type="curve" smooth="yes"/>
			<point x="1130" y="993"/>
			<point x="1141" y="1004"/>
		</contour>
	</outline>
</glyph>
<glyph name="I" format="2">
	<advance width="220"/>
	<unicode hex="0049"/>
	<unicode hex="0069"/>
	<unicode hex="0131"/>
	<anchor x="110" y="0" name="bottom"/>
	<anchor x="218" y="10" name="ogonek"/>
	<anchor x="110" y="1400" name="top"/>
	<anchor x="-5" y="1400" name="topleft"/>
	<outline>
		<contour>
			<point x="135" y="26" type="curve" smooth="yes"/>
			<point x="135" y="500" type="line" smooth="yes"/>
			<point x="135" y="514"/>
			<point x="124" y="525"/>
			<point x="110" y="525" type="curve" smooth="yes"/>
			<point x="96" y="525"/>
			<point x="85" y="514"/>
			<point x="85" y="500" type="curve" smooth="yes"/>
			<point x="85" y="26" type="line" smooth="yes"/>
			<point x="85" y="12"/>
			<point x="96" y="1"/>
			<point x="110" y="1" type="curve" smooth="yes"/>
			<point x="124" y="1"/>
			<point x="135" y="12"/>
		</contour>
		<contour>
			<point x="135" y="900" type="curve" smooth="yes"/>
			<point x="135" y="1375" type="line" smooth="yes"/>
			<point x="135" y="1388"/>
			<point x="124" y="1400"/>
			<point x="110" y="1400" type="curve" smooth="yes"/>
			<point x="96" y="1400"/>
			<point x="85" y="1388"/>
			<point x="85" y="1375" type="curve" smooth="yes"/>
			<point x="85" y="900" type="line" smooth="yes"/>
			<point x="85" y="886"/>
			<point x="96" y="875"/>
			<point x="110" y="875" type="curve" smooth="yes"/>
			<point x="124" y="875"/>
			<point x="135" y="886"/>
		</contour>
	</outline>
</glyph>
<glyph name="J" format="2">
	<advance width="1133"/>
	<unicode hex="004A"/>
	<unicode hex="006A"/>
	<unicode hex="0237"/>
	<anchor x="559" y="0" name="bottom"/>
	<anchor x="1031" y="1399" name="top"/>
	<outline>
		<contour>
			<point x="1005" y="498" type="curve" smooth="yes"/>
			<point x="1005" y="250"/>
			<point x="805" y="50"/>
			<point x="558" y="50" type="curve" smooth="yes"/>
			<point x="310" y="50"/>
			<point x="110" y="250"/>
			<point x="110" y="498" type="curve" smooth="yes"/>
			<point x="110" y="512"/>
			<point x="99" y="523"/>
			<point x="85" y="523" type="curve" smooth="yes"/>
			<point x="71" y="523"/>
			<point x="60" y="512"/>
			<point x="60" y="498" type="curve" smooth="yes"/>
			<point x="60" y="222"/>
			<point x="282" y="0"/>
			<point x="558" y="0" type="curve" smooth="yes"/>
			<point x="833" y="0"/>
			<point x="1055" y="222"/>
			<point x="1055" y="498" type="curve" smooth="yes"/>
			<point x="1055" y="512"/>
			<point x="1044" y="523"/>
			<point x="1030" y="523" type="curve" smooth="yes"/>
			<point x="1016" y="523"/>
			<point x="1005" y="512"/>
		</contour>
		<contour>
			<point x="1056" y="900" type="curve" smooth="yes"/>
			<point x="1056" y="1375" type="line" smooth="yes"/>
			<point x="1056" y="1388"/>
			<point x="1045" y="1400"/>
			<point x="1031" y="1400" type="curve" smooth="yes"/>
			<point x="1017" y="1400"/>
			<point x="1006" y="1388"/>
			<point x="1006" y="1375" type="curve" smooth="yes"/>
			<point x="1006" y="900" type="line" smooth="yes"/>
			<point x="1006" y="886"/>
			<point x="1017" y="875"/>
			<point x="1031" y="875" type="curve" smooth="yes"/>
			<point x="1045" y="875"/>
			<point x="1056" y="886"/>
		</contour>
	</outline>
</glyph>
<glyph name="K" format="2">
	<advance width="1204"/>
	<unicode hex="004B"/>
	<unicode hex="006B"/>
	<anchor x="590" y="0" name="bottom"/>
	<anchor x="590" y="1400" name="top"/>
	<outline>
		<contour>
			<point x="135" y="26" type="curve" smooth="yes"/>
			<point x="135" y="1375" type="line" smooth="yes"/>
			<point x="135" y="1388"/>
			<point x="124" y="1400"/>
			<point x="110" y="1400" type="curve" smooth="yes"/>
			<point x="96" y="1400"/>
			<point x="85" y="1388"/>
			<point x="85" y="1375" type="curve" smooth="yes"/>
			<point x="85" y="26" type="line" smooth="yes"/>
			<point x="85" y="12"/>
			<point x="96" y="1"/>
			<point x="110" y="1" type="curve" smooth="yes"/>
			<point x="124" y="1"/>
			<point x="135" y="12"/>
		</contour>
		<contour>
			<point x="1137" y="43" type="curve"/>
			<point x="462" y="718" type="line"/>
			<point x="457" y="722"/>
			<point x="451" y="725"/>
			<point x="444" y="725" type="curve" smooth="yes"/>
			<point x="430" y="725"/>
			<point x="419" y="714"/>
			<point x="419" y="700" type="curve" smooth="yes"/>
			<point x="419" y="693"/>
			<point x="422" y="687"/>
			<point x="426" y="682" type="curve"/>
			<point x="1101" y="7" type="line"/>
			<point x="1106" y="3"/>
			<point x="1112" y="0"/>
			<point x="1119" y="0" type="curve" smooth="yes"/>
			<point x="1133" y="0"/>
			<point x="1144" y="11"/>
			<point x="1144" y="25" type="curve" smooth="yes"/>
			<point x="1144" y="32"/>
			<point x="1141" y="38"/>
		</contour>
		<contour>
			<point x="1101" y="1393" type="curve"/>
			<point x="724" y="1016" type="line"/>
			<point x="720" y="1011"/>
			<point x="717" y="1005"/>
			<point x="717" y="998" type="curve" smooth="yes"/>
			<point x="717" y="984"/>
			<point x="728" y="973"/>
			<point x="742" y="973" type="curve" smooth="yes"/>
			<point x="749" y="973"/>
			<point x="755" y="976"/>
			<point x="760" y="980" type="curve"/>
			<point x="1137" y="1357" type="line"/>
			<point x="1141" y="1362"/>
			<point x="1144" y="1368"/>
			<point x="1144" y="1375" type="curve" smooth="yes"/>
			<point x="1144" y="1389"/>
			<point x="1133" y="1400"/>
			<point x="1119" y="1400" type="curve" smooth="yes"/>
			<point x="1112" y="1400"/>
			<point x="1106" y="1397"/>
		</contour>
	</outline>
</glyph>
<glyph name="M" format="2">
	<advance width="1490"/>
	<unicode hex="004D"/>
	<unicode hex="006D"/>
	<anchor x="745" y="0" name="bottom"/>
	<anchor x="745" y="1400" name="top"/>
	<outline>
		<contour>
			<point x="85" y="1375" type="curve" smooth="yes"/>
			<point x="85" y="26" type="line" smooth="yes"/>
			<point x="85" y="12"/>
			<point x="96" y="1"/>
			<point x="110" y="1" type="curve" smooth="yes"/>
			<point x="124" y="1"/>
			<point x="135" y="12"/>
			<point x="135" y="26" type="curve" smooth="yes"/>
			<point x="135" y="1375" type="line" smooth="yes"/>
			<point x="135" y="1388"/>
			<point x="124" y="1400"/>
			<point x="110" y="1400" type="curve" smooth="yes"/>
			<point x="96" y="1400"/>
			<point x="85" y="1388"/>
		</contour>
		<contour>
			<point x="763" y="715" type="curve" smooth="yes"/>
			<point x="130" y="1390" type="line" smooth="yes"/>
			<point x="125" y="1395"/>
			<point x="119" y="1398"/>
			<point x="111" y="1398" type="curve" smooth="yes"/>
			<point x="98" y="1398"/>
			<point x="86" y="1386"/>
			<point x="86" y="1373" type="curve" smooth="yes"/>
			<point x="86" y="1366"/>
			<point x="89" y="1360"/>
			<point x="94" y="1355" type="curve" smooth="yes"/>
			<point x="727" y="681" type="line" smooth="yes"/>
			<point x="731" y="676"/>
			<point x="738" y="673"/>
			<point x="745" y="673" type="curve" smooth="yes"/>
			<point x="759" y="673"/>
			<point x="770" y="684"/>
			<point x="770" y="698" type="curve" smooth="yes"/>
			<point x="770" y="705"/>
			<point x="767" y="711"/>
		</contour>
		<contour>
			<point x="1355" y="1375" type="curve" smooth="yes"/>
			<point x="1355" y="26" type="line" smooth="yes"/>
			<point x="1355" y="12"/>
			<point x="1366" y="1"/>
			<point x="1380" y="1" type="curve" smooth="yes"/>
			<point x="1394" y="1"/>
			<point x="1405" y="12"/>
			<point x="1405" y="26" type="curve" smooth="yes"/>
			<point x="1405" y="1375" type="line" smooth="yes"/>
			<point x="1405" y="1388"/>
			<point x="1394" y="1400"/>
			<point x="1380" y="1400" type="curve" smooth="yes"/>
			<point x="1366" y="1400"/>
			<point x="1355" y="1388"/>
		</contour>
	</outline>
</glyph>
<glyph name="Q" format="2">
	<advance width="1528"/>
	<unicode hex="0051"/>
	<unicode hex="0071"/>
	<anchor x="764" y="0" name="bottom"/>
	<anchor x="764" y="1400" name="top"/>
	<outline>
		<contour>
			<point x="1456" y="43" type="curve"/>
			<point x="983" y="516" type="line"/>
			<point x="978" y="520"/>
			<point x="972" y="523"/>
			<point x="965" y="523" type="curve" smooth="yes"/>
			<point x="951" y="523"/>
			<point x="940" y="512"/>
			<point x="940" y="498" type="curve" smooth="yes"/>
			<point x="940" y="491"/>
			<point x="943" y="485"/>
			<point x="947" y="480" type="curve"/>
			<point x="1420" y="7" type="line"/>
			<point x="1425" y="3"/>
			<point x="1431" y="0"/>
			<point x="1438" y="0" type="curve" smooth="yes"/>
			<point x="1452" y="0"/>
			<point x="1463" y="11"/>
			<point x="1463" y="25" type="curve" smooth="yes"/>
			<point x="1463" y="32"/>
			<point x="1460" y="38"/>
		</contour>
		<contour>
			<point x="764" y="50" type="curve" smooth="yes"/>
			<point x="405" y="50"/>
			<point x="114" y="341"/>
			<point x="114" y="700" type="curve" smooth="yes"/>
			<point x="114" y="1059"/>
			<point x="405" y="1350"/>
			<point x="764" y="1350" type="curve" smooth="yes"/>
			<point x="1123" y="1350"/>
			<point x="1414" y="1059"/>
			<point x="1414" y="700" type="curve" smooth="yes"/>
			<point x="1414" y="686"/>
			<point x="1425" y="675"/>
			<point x="1439" y="675" type="curve" smooth="yes"/>
			<point x="1453" y="675"/>
			<point x="1464" y="686"/>
			<point x="1464" y="700" type="curve" smooth="yes"/>
			<point x="1464" y="1087"/>
			<point x="1151" y="1400"/>
			<point x="764" y="1400" type="curve" smooth="yes"/>
			<point x="377" y="1400"/>
			<point x="64" y="1087"/>
			<point x="64" y="700" type="curve" smooth="yes"/>
			<point x="64" y="313"/>
			<point x="377" y="0"/>
			<point x="764" y="0" type="curve" smooth="yes"/>
			<point x="778" y="0"/>
			<point x="789" y="11"/>
			<point x="789" y="25" type="curve" smooth="yes"/>
			<point x="789" y="39"/>
			<point x="778" y="50"/>
		</contour>
	</outline>
</glyph>
<glyph name="W" format="2">
	<advance width="1908"/>
	<unicode hex="0057"/>
	<unicode hex="0077"/>
	<anchor x="954" y="0" name="bottom"/>
	<anchor x="954" y="1400" name="top"/>
	<outline>
		<contour>
			<point x="1393" y="0" type="curve" smooth="yes"/>
			<point x="1404" y="0"/>
			<point x="1414" y="8"/>
			<point x="1417" y="18" type="curve" smooth="yes"/>
			<point x="1847" y="1368" type="line" smooth="yes"/>
			<point x="1852" y="1383"/>
			<point x="1840" y="1400"/>
			<point x="1823" y="1400" type="curve" smooth="yes"/>
			<point x="1812" y="1400"/>
			<point x="1802" y="1392"/>
			<point x="1799" y="1382" type="curve" smooth="yes"/>
			<point x="1369" y="32" type="line" smooth="yes"/>
			<point x="1364" y="17"/>
			<point x="1376" y="0"/>
		</contour>
		<contour>
			<point x="294" y="685" type="curve" smooth="yes"/>
			<point x="311" y="685"/>
			<point x="323" y="702"/>
			<point x="318" y="717" type="curve" smooth="yes"/>
			<point x="109" y="1382" type="line" smooth="yes"/>
			<point x="106" y="1392"/>
			<point x="96" y="1400"/>
			<point x="85" y="1400" type="curve" smooth="yes"/>
			<point x="68" y="1400"/>
			<point x="56" y="1383"/>
			<point x="61" y="1368" type="curve" smooth="yes"/>
			<point x="270" y="703" type="line" smooth="yes"/>
			<point x="273" y="693"/>
			<point x="283" y="685"/>
		</contour>
		<contour>
			<point x="534" y="0" type="curve" smooth="yes"/>
			<point x="545" y="0"/>
			<point x="555" y="8"/>
			<point x="558" y="19" type="curve" smooth="yes"/>
			<point x="978" y="1368" type="line" smooth="yes"/>
			<point x="983" y="1383"/>
			<point x="971" y="1400"/>
			<point x="954" y="1400" type="curve" smooth="yes"/>
			<point x="943" y="1400"/>
			<point x="933" y="1392"/>
			<point x="930" y="1381" type="curve" smooth="yes"/>
			<point x="510" y="32" type="line" smooth="yes"/>
			<point x="505" y="17"/>
			<point x="517" y="0"/>
		</contour>
		<contour>
			<point x="1153" y="686" type="curve" smooth="yes"/>
			<point x="1169" y="686"/>
			<point x="1181" y="702"/>
			<point x="1177" y="717" type="curve" smooth="yes"/>
			<point x="979" y="1382" type="line" smooth="yes"/>
			<point x="976" y="1393"/>
			<point x="966" y="1400"/>
			<point x="954" y="1400" type="curve" smooth="yes"/>
			<point x="938" y="1400"/>
			<point x="926" y="1384"/>
			<point x="930" y="1369" type="curve" smooth="yes"/>
			<point x="1128" y="704" type="line" smooth="yes"/>
			<point x="1131" y="693"/>
			<point x="1141" y="686"/>
		</contour>
	</outline>
</glyph>
<glyph name="Y" format="2">
	<advance width="1231"/>
	<unicode hex="0059"/>
	<unicode hex="0079"/>
	<anchor x="616" y="0" name="bottom"/>
	<anchor x="616" y="1400" name="top"/>
	<anchor x="20" y="1400" name="topleft"/>
	<outline>
		<contour>
			<point x="591" y="697" type="curve" smooth="yes"/>
			<point x="591" y="26" type="line" smooth="yes"/>
			<point x="591" y="12"/>
			<point x="602" y="1"/>
			<point x="616" y="1" type="curve" smooth="yes"/>
			<point x="630" y="1"/>
			<point x="641" y="12"/>
			<point x="641" y="26" type="curve" smooth="yes"/>
			<point x="641" y="697" type="line" smooth="yes"/>
			<point x="641" y="710"/>
			<point x="630" y="722"/>
			<point x="616" y="722" type="curve" smooth="yes"/>
			<point x="602" y="722"/>
			<point x="591" y="710"/>
		</contour>
		<contour>
			<point x="401" y="1013" type="curve" smooth="yes"/>
			<point x="104" y="1391" type="line" smooth="yes"/>
			<point x="100" y="1397"/>
			<point x="93" y="1400"/>
			<point x="85" y="1400" type="curve" smooth="yes"/>
			<point x="71" y="1400"/>
			<point x="60" y="1389"/>
			<point x="60" y="1375" type="curve" smooth="yes"/>
			<point x="60" y="1369"/>
			<point x="62" y="1364"/>
			<point x="65" y="1360" type="curve" smooth="yes"/>
			<point x="361" y="983" type="line" smooth="yes"/>
			<point x="366" y="977"/>
			<point x="373" y="973"/>
			<point x="381" y="973" type="curve" smooth="yes"/>
			<point x="395" y="973"/>
			<point x="406" y="984"/>
			<point x="406" y="998" type="curve" smooth="yes"/>
			<point x="406" y="1004"/>
			<point x="404" y="1009"/>
		</contour>
		<contour>
			<point x="1127" y="1391" type="curve" smooth="yes"/>
			<point x="596" y="714" type="line" smooth="yes"/>
			<point x="593" y="710"/>
			<point x="591" y="705"/>
			<point x="591" y="699" type="curve" smooth="yes"/>
			<point x="591" y="685"/>
			<point x="602" y="674"/>
			<point x="616" y="674" type="curve" smooth="yes"/>
			<point x="624" y="674"/>
			<point x="631" y="678"/>
			<point x="636" y="684" type="curve" smooth="yes"/>
			<point x="1166" y="1360" type="line" smooth="yes"/>
			<point x="1169" y="1364"/>
			<point x="1171" y="1369"/>
			<point x="1171" y="1375" type="curve" smooth="yes"/>
			<point x="1171" y="1389"/>
			<point x="1160" y="1400"/>
			<point x="1146" y="1400" type="curve" smooth="yes"/>
			<point x="1138" y="1400"/>
			<point x="1131" y="1397"/>
		</contour>
	</outline>
</glyph>
<glyph name="asciicircum" format="2">
	<advance width="760"/>
	<unicode hex="005E"/>
	<outline>
		<contour>
			<point x="361" y="1391" type="curve" smooth="yes"/>
			<point x="91" y="1060" type="line" smooth="yes"/>
			<point x="87" y="1056"/>
			<point x="85" y="1050"/>
			<point x="85" y="1044" type="curve" smooth="yes"/>
			<point x="85" y="1031"/>
			<point x="96" y="1019"/>
			<point x="110" y="1019" type="curve" smooth="yes"/>
			<point x="118" y="1019"/>
			<point x="125" y="1023"/>
			<point x="129" y="1028" type="curve" smooth="yes"/>
			<point x="399" y="1359" type="line" smooth="yes"/>
			<point x="403" y="1363"/>
			<point x="405" y="1369"/>
			<point x="405" y="1375" type="curve" smooth="yes"/>
			<point x="405" y="1388"/>
			<point x="394" y="1400"/>
			<point x="380" y="1400" type="curve" smooth="yes"/>
			<point x="372" y="1400"/>
			<point x="365" y="1396"/>
		</contour>
		<contour>
			<point x="361" y="1359" type="curve" smooth="yes"/>
			<point x="631" y="1028" type="line" smooth="yes"/>
			<point x="635" y="1023"/>
			<point x="642" y="1019"/>
			<point x="650" y="1019" type="curve" smooth="yes"/>
			<point x="664" y="1019"/>
			<point x="675" y="1031"/>
			<point x="675" y="1044" type="curve" smooth="yes"/>
			<point x="675" y="1050"/>
			<point x="673" y="1056"/>
			<point x="669" y="1060" type="curve" smooth="yes"/>
			<point x="399" y="1391" type="line" smooth="yes"/>
			<point x="395" y="1396"/>
			<point x="388" y="1400"/>
			<point x="380" y="1400" type="curve" smooth="yes"/>
			<point x="366" y="1400"/>
			<point x="355" y="1388"/>
			<point x="355" y="1375" type="curve" smooth="yes"/>
			<point x="355" y="1369"/>
			<point x="357" y="1363"/>
		</contour>
	</outline>
</glyph>
<glyph name="underscore" format="2">
	<advance width="1270"/>
	<unicode hex="005F"/>
	<outline>
		<contour>
			<point x="1160" y="0" type="curve" smooth="yes"/>
			<point x="110" y="0" type="line" smooth="yes"/>
			<point x="96" y="0"/>
			<point x="85" y="-11"/>
			<point x="85" y="-25" type="curve" smooth="yes"/>
			<point x="85" y="-39"/>
			<point x="96" y="-50"/>
			<point x="110" y="-50" type="curve" smooth="yes"/>
			<point x="1160" y="-50" type="line" smooth="yes"/>
			<point x="1173" y="-50"/>
			<point x="1185" y="-39"/>
			<point x="1185" y="-25" type="curve" smooth="yes"/>
			<point x="1185" y="-11"/>
			<point x="1173" y="0"/>
		</contour>
	</outline>
</glyph>
<glyph name="bar" format="2">
	<advance width="220"/>
	<unicode hex="007C"/>
	<outline>
		<contour>
			<point x="135" y="3" type="curve" smooth="yes"/>
			<point x="135" y="1375" type="line" smooth="yes"/>
			<point x="135" y="1388"/>
			<point x="124" y="1400"/>
			<point x="110" y="1400" type="curve" smooth="yes"/>
			<point x="96" y="1400"/>
			<point x="85" y="1388"/>
			<point x="85" y="1375" type="curve" smooth="yes"/>
			<point x="85" y="3" type="line" smooth="yes"/>
			<point x="85" y="-11"/>
			<point x="96" y="-22"/>
			<point x="110" y="-22" type="curve" smooth="yes"/>
			<point x="124" y="-22"/>
			<point x="135" y="-11"/>
		</contour>
	</outline>
</glyph>
<glyph name="asciitilde" format="2">
	<advance width="768"/>
	<unicode hex="007E"/>
	<outline>
		<contour>
			<point x="636" y="747" type="curve"/>
			<point x="573" y="639"/>
			<point x="494" y="643"/>
			<point x="400" y="720" type="curve" smooth="yes"/>
			<point x="289" y="808"/>
			<point x="169" y="815"/>
			<point x="88" y="679" type="curve" smooth="yes"/>
			<point x="86" y="675"/>
			<point x="85" y="671"/>
			<point x="85" y="666" type="curve" smooth="yes"/>
			<point x="85" y="652"/>
			<point x="96" y="641"/>
			<point x="110" y="641" type="curve" smooth="yes"/>
			<point x="119" y="641"/>
			<point x="127" y="646"/>
			<point x="132" y="653" type="curve"/>
			<point x="195" y="761"/>
			<point x="274" y="757"/>
			<point x="368" y="680" type="curve" smooth="yes"/>
			<point x="479" y="592"/>
			<point x="599" y="585"/>
			<point x="680" y="721" type="curve" smooth="yes"/>
			<point x="682" y="725"/>
			<point x="683" y="729"/>
			<point x="683" y="734" type="curve" smooth="yes"/>
			<point x="683" y="748"/>
			<point x="672" y="759"/>
			<point x="658" y="759" type="curve" smooth="yes"/>
			<point x="649" y="759"/>
			<point x="641" y="754"/>
		</contour>
	</outline>
</glyph>
<glyph name="exclamdown" format="2">
	<advance width="245"/>
	<unicode hex="00A1"/>
	<outline>
		<contour>
			<point x="122" y="1400" type="curve" smooth="yes"/>
			<point x="102" y="1400"/>
			<point x="85" y="1383"/>
			<point x="85" y="1362" type="curve" smooth="yes"/>
			<point x="85" y="1342"/>
			<point x="102" y="1325"/>
			<point x="122" y="1325" type="curve" smooth="yes"/>
			<point x="143" y="1325"/>
			<point x="160" y="1342"/>
			<point x="160" y="1362" type="curve" smooth="yes"/>
			<point x="160" y="1383"/>
			<point x="143" y="1400"/>
		</contour>
		<contour>
			<point x="97" y="1019" type="curve" smooth="yes"/>
			<point x="97" y="26" type="line" smooth="yes"/>
			<point x="97" y="12"/>
			<point x="108" y="1"/>
			<point x="122" y="1" type="curve" smooth="yes"/>
			<point x="136" y="1"/>
			<point x="147" y="12"/>
			<point x="147" y="26" type="curve" smooth="yes"/>
			<point x="147" y="1019" type="line" smooth="yes"/>
			<point x="147" y="1032"/>
			<point x="136" y="1044"/>
			<point x="122" y="1044" type="curve" smooth="yes"/>
			<point x="108" y="1044"/>
			<point x="97" y="1032"/>
		</contour>
	</outline>
</glyph>
<glyph name="brokenbar" format="2">
	<advance width="220"/>
	<unicode hex="00A6"/>
	<outline>
		<contour>
			<point x="135" y="26" type="curve" smooth="yes"/>
			<point x="135" y="350" type="line" smooth="yes"/>
			<point x="135" y="364"/>
			<point x="124" y="375"/>
			<point x="110" y="375" type="curve" smooth="yes"/>
			<point x="96" y="375"/>
			<point x="85" y="364"/>
			<point x="85" y="350" type="curve" smooth="yes"/>
			<point x="85" y="26" type="line" smooth="yes"/>
			<point x="85" y="12"/>
			<point x="96" y="1"/>
			<point x="110" y="1" type="curve" smooth="yes"/>
			<point x="124" y="1"/>
			<point x="135" y="12"/>
		</contour>
		<contour>
			<point x="135" y="1050" type="curve" smooth="yes"/>
			<point x="135" y="1375" type="line" smooth="yes"/>
			<point x="135" y="1388"/>
			<point x="124" y="1400"/>
			<point x="110" y="1400" type="curve" smooth="yes"/>
			<point x="96" y="1400"/>
			<point x="85" y="1388"/>
			<point x="85" y="1375" type="curve" smooth="yes"/>
			<point x="85" y="1050" type="line" smooth="yes"/>
			<point x="85" y="1036"/>
			<point x="96" y="1025"/>
			<point x="110" y="1025" type="curve" smooth="yes"/>
			<point x="124" y="1025"/>
			<point x="135" y="1036"/>
		</contour>
	</outline>
</glyph>
<glyph name="uni00B9" format="2">
	<advance width="468"/>
	<unicode hex="00B9"/>
	<outline>
		<contour>
			<point x="279" y="650" type="curve" smooth="yes"/>
			<point x="279" y="868" type="line" smooth="yes"/>
			<point x="279" y="882"/>
			<point x="268" y="893"/>
			<point x="254" y="893" type="curve" smooth="yes"/>
			<point x="240" y="893"/>
			<point x="229" y="882"/>
			<point x="229" y="868" type="curve" smooth="yes"/>
			<point x="229" y="650" type="line" smooth="yes"/>
			<point x="229" y="636"/>
			<point x="240" y="625"/>
			<point x="254" y="625" type="curve" smooth="yes"/>
			<point x="268" y="625"/>
			<point x="279" y="636"/>
		</contour>
		<contour>
			<point x="239" y="1395" type="curve" smooth="yes"/>
			<point x="74" y="1265" type="line" smooth="yes"/>
			<point x="68" y="1260"/>
			<point x="64" y="1253"/>
			<point x="64" y="1245" type="curve" smooth="yes"/>
			<point x="64" y="1231"/>
			<point x="75" y="1220"/>
			<point x="89" y="1220" type="curve" smooth="yes"/>
			<point x="95" y="1220"/>
			<point x="100" y="1222"/>
			<point x="104" y="1225" type="curve" smooth="yes"/>
			<point x="269" y="1355" type="line" smooth="yes"/>
			<point x="275" y="1360"/>
			<point x="279" y="1367"/>
			<point x="279" y="1375" type="curve" smooth="yes"/>
			<point x="279" y="1389"/>
			<point x="268" y="1400"/>
			<point x="254" y="1400" type="curve" smooth="yes"/>
			<point x="248" y="1400"/>
			<point x="243" y="1398"/>
		</contour>
		<contour>
			<point x="279" y="1089" type="curve" smooth="yes"/>
			<point x="279" y="1375" type="line" smooth="yes"/>
			<point x="279" y="1388"/>
			<point x="268" y="1400"/>
			<point x="254" y="1400" type="curve" smooth="yes"/>
			<point x="240" y="1400"/>
			<point x="229" y="1388"/>
			<point x="229" y="1375" type="curve" smooth="yes"/>
			<point x="229" y="1089" type="line" smooth="yes"/>
			<point x="229" y="1075"/>
			<point x="240" y="1064"/>
			<point x="254" y="1064" type="curve" smooth="yes"/>
			<point x="268" y="1064"/>
			<point x="279" y="1075"/>
		</contour>
	</outline>
</glyph>
<glyph name="ordmasculine" format="2">
	<advance width="740"/>
	<unicode hex="00BA"/>
	<outline>
		<contour>
			<point x="172" y="1263" type="curve" smooth="yes"/>
			<point x="186" y="1263"/>
			<point x="197" y="1274"/>
			<point x="197" y="1288" type="curve" smooth="yes"/>
			<point x="197" y="1302"/>
			<point x="186" y="1313"/>
			<point x="172" y="1313" type="curve" smooth="yes"/>
			<point x="158" y="1313"/>
			<point x="147" y="1302"/>
			<point x="147" y="1288" type="curve" smooth="yes"/>
			<point x="147" y="1274"/>
			<point x="158" y="1263"/>
		</contour>
		<contour>
			<point x="370" y="1350" type="curve" smooth="yes"/>
			<point x="514" y="1350"/>
			<point x="630" y="1234"/>
			<point x="630" y="1090" type="curve" smooth="yes"/>
			<point x="630" y="946"/>
			<point x="514" y="830"/>
			<point x="370" y="830" type="curve" smooth="yes"/>
			<point x="226" y="830"/>
			<point x="110" y="946"/>
			<point x="110" y="1090" type="curve" smooth="yes"/>
			<point x="110" y="1104"/>
			<point x="99" y="1115"/>
			<point x="85" y="1115" type="curve" smooth="yes"/>
			<point x="71" y="1115"/>
			<point x="60" y="1104"/>
			<point x="60" y="1090" type="curve" smooth="yes"/>
			<point x="60" y="918"/>
			<point x="198" y="780"/>
			<point x="370" y="780" type="curve" smooth="yes"/>
			<point x="542" y="780"/>
			<point x="680" y="918"/>
			<point x="680" y="1090" type="curve" smooth="yes"/>
			<point x="680" y="1262"/>
			<point x="542" y="1400"/>
			<point x="370" y="1400" type="curve" smooth="yes"/>
			<point x="356" y="1400"/>
			<point x="345" y="1389"/>
			<point x="345" y="1375" type="curve" smooth="yes"/>
			<point x="345" y="1361"/>
			<point x="356" y="1350"/>
		</contour>
	</outline>
</glyph>
<glyph name="Eth" format="2">
	<advance width="1391"/>
	<unicode hex="00D0"/>
	<unicode hex="00F0"/>
	<anchor x="744" y="0" name="bottom"/>
	<anchor x="744" y="700" name="center"/>
	<anchor x="694" y="1400" name="top"/>
	<outline>
		<contour>
			<point x="208" y="469" type="curve" smooth="yes"/>
			<point x="208" y="26" type="line" smooth="yes"/>
			<point x="208" y="12"/>
			<point x="219" y="1"/>
			<point x="233" y="1" type="curve" smooth="yes"/>
			<point x="247" y="1"/>
			<point x="258" y="12"/>
			<point x="258" y="26" type="curve" smooth="yes"/>
			<point x="258" y="469" type="line" smooth="yes"/>
			<point x="258" y="482"/>
			<point x="247" y="494"/>
			<point x="233" y="494" type="curve" smooth="yes"/>
			<point x="219" y="494"/>
			<point x="208" y="482"/>
		</contour>
		<contour>
			<point x="566" y="725" type="curve" smooth="yes"/>
			<point x="25" y="725" type="line" smooth="yes"/>
			<point x="11" y="725"/>
			<point x="-1" y="714"/>
			<point x="-1" y="700" type="curve" smooth="yes"/>
			<point x="-1" y="686"/>
			<point x="11" y="675"/>
			<point x="25" y="675" type="curve" smooth="yes"/>
			<point x="566" y="675" type="line" smooth="yes"/>
			<point x="579" y="675"/>
			<point x="591" y="686"/>
			<point x="591" y="700" type="curve" smooth="yes"/>
			<point x="591" y="714"/>
			<point x="579" y="725"/>
		</contour>
		<contour>
			<point x="627" y="0" type="curve" smooth="yes"/>
			<point x="1014" y="0"/>
			<point x="1327" y="313"/>
			<point x="1327" y="700" type="curve" smooth="yes"/>
			<point x="1327" y="1087"/>
			<point x="1014" y="1400"/>
			<point x="627" y="1400" type="curve" smooth="yes"/>
			<point x="231" y="1400" type="line" smooth="yes"/>
			<point x="217" y="1400"/>
			<point x="206" y="1389"/>
			<point x="206" y="1375" type="curve" smooth="yes"/>
			<point x="206" y="1361"/>
			<point x="217" y="1350"/>
			<point x="231" y="1350" type="curve" smooth="yes"/>
			<point x="627" y="1350" type="line" smooth="yes"/>
			<point x="986" y="1350"/>
			<point x="1277" y="1059"/>
			<point x="1277" y="700" type="curve" smooth="yes"/>
			<point x="1277" y="341"/>
			<point x="986" y="50"/>
			<point x="627" y="50" type="curve" smooth="yes"/>
			<point x="613" y="50"/>
			<point x="602" y="39"/>
			<point x="602" y="25" type="curve" smooth="yes"/>
			<point x="602" y="11"/>
			<point x="613" y="0"/>
		</contour>
	</outline>
</glyph>
<glyph name="Thorn" format="2">
	<advance width="1041"/>
	<unicode hex="00DE"/>
	<unicode hex="00FE"/>
	<outline>
		<contour>
			<point x="135" y="29" type="curve" smooth="yes"/>
			<point x="135" y="345" type="line" smooth="yes"/>
			<point x="135" y="359"/>
			<point x="124" y="370"/>
			<point x="110" y="370" type="curve" smooth="yes"/>
			<point x="96" y="370"/>
			<point x="85" y="359"/>
			<point x="85" y="345" type="curve" smooth="yes"/>
			<point x="85" y="29" type="line" smooth="yes"/>
			<point x="85" y="15"/>
			<point x="96" y="4"/>
			<point x="110" y="4" type="curve" smooth="yes"/>
			<point x="124" y="4"/>
			<point x="135" y="15"/>
		</contour>
		<contour>
			<point x="85" y="1372" type="curve" smooth="yes"/>
			<point x="85" y="687" type="line" smooth="yes"/>
			<point x="85" y="673"/>
			<point x="96" y="662"/>
			<point x="110" y="662" type="curve" smooth="yes"/>
			<point x="124" y="662"/>
			<point x="135" y="673"/>
			<point x="135" y="687" type="curve" smooth="yes"/>
			<point x="135" y="1372" type="line" smooth="yes"/>
			<point x="135" y="1385"/>
			<point x="124" y="1397"/>
			<point x="110" y="1397" type="curve" smooth="yes"/>
			<point x="96" y="1397"/>
			<point x="85" y="1385"/>
		</contour>
		<contour>
			<point x="110" y="320" type="curve" smooth="yes"/>
			<point x="593" y="320" type="line" smooth="yes"/>
			<point x="803" y="320"/>
			<point x="975" y="490"/>
			<point x="975" y="701" type="curve" smooth="yes"/>
			<point x="975" y="913"/>
			<point x="804" y="1084"/>
			<point x="593" y="1084" type="curve" smooth="yes"/>
			<point x="378" y="1084" type="line" smooth="yes"/>
			<point x="364" y="1084"/>
			<point x="353" y="1073"/>
			<point x="353" y="1059" type="curve" smooth="yes"/>
			<point x="353" y="1045"/>
			<point x="364" y="1034"/>
			<point x="378" y="1034" type="curve" smooth="yes"/>
			<point x="593" y="1034" type="line" smooth="yes"/>
			<point x="776" y="1034"/>
			<point x="925" y="885"/>
			<point x="925" y="701" type="curve" smooth="yes"/>
			<point x="925" y="518"/>
			<point x="776" y="370"/>
			<point x="593" y="370" type="curve" smooth="yes"/>
			<point x="110" y="370" type="line" smooth="yes"/>
			<point x="96" y="370"/>
			<point x="85" y="359"/>
			<point x="85" y="345" type="curve" smooth="yes"/>
			<point x="85" y="331"/>
			<point x="96" y="320"/>
		</contour>
	</outline>
</glyph>
<glyph name="Lslash" format="2">
	<advance width="1213"/>
	<unicode hex="0141"/>
	<unicode hex="0142"/>
	<outline>
		<contour>
			<point x="258" y="29" type="curve" smooth="yes"/>
			<point x="258" y="452" type="line" smooth="yes"/>
			<point x="258" y="465"/>
			<point x="247" y="477"/>
			<point x="233" y="477" type="curve" smooth="yes"/>
			<point x="219" y="477"/>
			<point x="208" y="465"/>
			<point x="208" y="452" type="curve" smooth="yes"/>
			<point x="208" y="29" type="line" smooth="yes"/>
			<point x="208" y="15"/>
			<point x="219" y="4"/>
			<point x="233" y="4" type="curve" smooth="yes"/>
			<point x="247" y="4"/>
			<point x="258" y="15"/>
		</contour>
		<contour>
			<point x="1128" y="50" type="curve" smooth="yes"/>
			<point x="233" y="50" type="line" smooth="yes"/>
			<point x="219" y="50"/>
			<point x="208" y="39"/>
			<point x="208" y="25" type="curve" smooth="yes"/>
			<point x="208" y="11"/>
			<point x="219" y="0"/>
			<point x="233" y="0" type="curve" smooth="yes"/>
			<point x="1128" y="0" type="line" smooth="yes"/>
			<point x="1142" y="0"/>
			<point x="1153" y="11"/>
			<point x="1153" y="25" type="curve" smooth="yes"/>
			<point x="1153" y="39"/>
			<point x="1142" y="50"/>
		</contour>
		<contour>
			<point x="433" y="840" type="curve"/>
			<point x="12" y="603" type="line"/>
			<point x="5" y="598"/>
			<point x="0" y="590"/>
			<point x="0" y="581" type="curve" smooth="yes"/>
			<point x="0" y="567"/>
			<point x="11" y="556"/>
			<point x="25" y="556" type="curve" smooth="yes"/>
			<point x="29" y="556"/>
			<point x="34" y="557"/>
			<point x="37" y="560" type="curve"/>
			<point x="458" y="797" type="line"/>
			<point x="465" y="802"/>
			<point x="470" y="810"/>
			<point x="470" y="819" type="curve" smooth="yes"/>
			<point x="470" y="833"/>
			<point x="459" y="844"/>
			<point x="445" y="844" type="curve" smooth="yes"/>
			<point x="441" y="844"/>
			<point x="436" y="843"/>
		</contour>
		<contour>
			<point x="258" y="949" type="curve" smooth="yes"/>
			<point x="258" y="1372" type="line" smooth="yes"/>
			<point x="258" y="1385"/>
			<point x="247" y="1397"/>
			<point x="233" y="1397" type="curve" smooth="yes"/>
			<point x="219" y="1397"/>
			<point x="208" y="1385"/>
			<point x="208" y="1372" type="curve" smooth="yes"/>
			<point x="208" y="949" type="line" smooth="yes"/>
			<point x="208" y="935"/>
			<point x="219" y="924"/>
			<point x="233" y="924" type="curve" smooth="yes"/>
			<point x="247" y="924"/>
			<point x="258" y="935"/>
		</contour>
	</outline>
</glyph>
<glyph name="OE" format="2">
	<advance width="1738"/>
	<unicode hex="0152"/>
	<unicode hex="0153"/>
	<outline>
		<contour>
			<point x="1643" y="50" type="curve" smooth="yes"/>
			<point x="970" y="50" type="line" smooth="yes"/>
			<point x="956" y="50"/>
			<point x="945" y="39"/>
			<point x="945" y="25" type="curve" smooth="yes"/>
			<point x="945" y="11"/>
			<point x="956" y="0"/>
			<point x="970" y="0" type="curve" smooth="yes"/>
			<point x="1643" y="0" type="line" smooth="yes"/>
			<point x="1656" y="0"/>
			<point x="1668" y="11"/>
			<point x="1668" y="25" type="curve" smooth="yes"/>
			<point x="1668" y="39"/>
			<point x="1656" y="50"/>
		</contour>
		<contour>
			<point x="995" y="28" type="line"/>
			<point x="995" y="736" type="line" smooth="yes"/>
			<point x="995" y="749"/>
			<point x="984" y="761"/>
			<point x="970" y="761" type="curve" smooth="yes"/>
			<point x="956" y="761"/>
			<point x="945" y="749"/>
			<point x="945" y="736" type="curve" smooth="yes"/>
			<point x="945" y="28" type="line"/>
		</contour>
		<contour>
			<point x="764" y="50" type="curve" smooth="yes"/>
			<point x="405" y="50"/>
			<point x="114" y="341"/>
			<point x="114" y="700" type="curve" smooth="yes"/>
			<point x="114" y="1059"/>
			<point x="405" y="1350"/>
			<point x="764" y="1350" type="curve" smooth="yes"/>
			<point x="1643" y="1350" type="line" smooth="yes"/>
			<point x="1656" y="1350"/>
			<point x="1668" y="1361"/>
			<point x="1668" y="1375" type="curve" smooth="yes"/>
			<point x="1668" y="1389"/>
			<point x="1656" y="1400"/>
			<point x="1643" y="1400" type="curve" smooth="yes"/>
			<point x="764" y="1400" type="line" smooth="yes"/>
			<point x="377" y="1400"/>
			<point x="64" y="1087"/>
			<point x="64" y="700" type="curve" smooth="yes"/>
			<point x="64" y="313"/>
			<point x="377" y="0"/>
			<point x="764" y="0" type="curve" smooth="yes"/>
			<point x="778" y="0"/>
			<point x="789" y="11"/>
			<point x="789" y="25" type="curve" smooth="yes"/>
			<point x="789" y="39"/>
			<point x="778" y="50"/>
		</contour>
		<contour>
			<point x="1266" y="675" type="curve" smooth="yes"/>
			<point x="1643" y="675" type="line" smooth="yes"/>
			<point x="1656" y="675"/>
			<point x="1668" y="686"/>
			<point x="1668" y="700" type="curve" smooth="yes"/>
			<point x="1668" y="714"/>
			<point x="1656" y="725"/>
			<point x="1643" y="725" type="curve" smooth="yes"/>
			<point x="1266" y="725" type="line" smooth="yes"/>
			<point x="1252" y="725"/>
			<point x="1241" y="714"/>
			<point x="1241" y="700" type="curve" smooth="yes"/>
			<point x="1241" y="686"/>
			<point x="1252" y="675"/>
		</contour>
	</outline>
</glyph>
<glyph name="florin" format="2">
	<advance width="783"/>
	<unicode hex="0192"/>
	<outline>
		<contour>
			<point x="338" y="372" type="curve" smooth="yes"/>
			<point x="338" y="-122" type="line" smooth="yes"/>
			<point x="338" y="-248"/>
			<point x="236" y="-350"/>
			<point x="110" y="-350" type="curve" smooth="yes"/>
			<point x="96" y="-350"/>
			<point x="85" y="-361"/>
			<point x="85" y="-375" type="curve" smooth="yes"/>
			<point x="85" y="-389"/>
			<point x="96" y="-400"/>
			<point x="110" y="-400" type="curve" smooth="yes"/>
			<point x="264" y="-400"/>
			<point x="388" y="-276"/>
			<point x="388" y="-122" type="curve" smooth="yes"/>
			<point x="388" y="372" type="line" smooth="yes"/>
			<point x="388" y="386"/>
			<point x="377" y="397"/>
			<point x="363" y="397" type="curve" smooth="yes"/>
			<point x="349" y="397"/>
			<point x="338" y="386"/>
		</contour>
		<contour>
			<point x="124" y="675" type="curve" smooth="yes"/>
			<point x="673" y="675" type="line" smooth="yes"/>
			<point x="686" y="675"/>
			<point x="698" y="686"/>
			<point x="698" y="700" type="curve" smooth="yes"/>
			<point x="698" y="714"/>
			<point x="686" y="725"/>
			<point x="673" y="725" type="curve" smooth="yes"/>
			<point x="124" y="725" type="line" smooth="yes"/>
			<point x="110" y="725"/>
			<point x="99" y="714"/>
			<point x="99" y="700" type="curve" smooth="yes"/>
			<point x="99" y="686"/>
			<point x="110" y="675"/>
		</contour>
		<contour>
			<point x="388" y="1122" type="curve" smooth="yes"/>
			<point x="388" y="1248"/>
			<point x="490" y="1350"/>
			<point x="616" y="1350" type="curve" smooth="yes"/>
			<point x="630" y="1350"/>
			<point x="641" y="1361"/>
			<point x="641" y="1375" type="curve" smooth="yes"/>
			<point x="641" y="1389"/>
			<point x="630" y="1400"/>
			<point x="616" y="1400" type="curve" smooth="yes"/>
			<point x="462" y="1400"/>
			<point x="338" y="1276"/>
			<point x="338" y="1122" type="curve" smooth="yes"/>
			<point x="338" y="1108"/>
			<point x="349" y="1097"/>
			<point x="363" y="1097" type="curve" smooth="yes"/>
			<point x="377" y="1097"/>
			<point x="388" y="1108"/>
		</contour>
	</outline>
</glyph>
<glyph name="tildecomb" format="2">
	<advance width="0"/>
	<unicode hex="0303"/>
	<anchor x="0" y="1400" name="_top"/>
	<anchor x="0" y="1746" name="top"/>
	<outline>
		<contour>
			<point x="245" y="1719" type="curve" smooth="yes"/>
			<point x="207" y="1642"/>
			<point x="118" y="1615"/>
			<point x="12" y="1693" type="curve" smooth="yes"/>
			<point x="-113" y="1785"/>
			<point x="-235" y="1749"/>
			<point x="-283" y="1651" type="curve" smooth="yes"/>
			<point x="-284" y="1648"/>
			<point x="-285" y="1645"/>
			<point x="-285" y="1642" type="curve" smooth="yes"/>
			<point x="-285" y="1630"/>
			<point x="-276" y="1621"/>
			<point x="-264" y="1621" type="curve" smooth="yes"/>
			<point x="-256" y="1621"/>
			<point x="-249" y="1626"/>
			<point x="-245" y="1633" type="curve" smooth="yes"/>
			<point x="-207" y="1710"/>
			<point x="-118" y="1737"/>
			<point x="-12" y="1659" type="curve" smooth="yes"/>
			<point x="113" y="1567"/>
			<point x="235" y="1603"/>
			<point x="283" y="1701" type="curve" smooth="yes"/>
			<point x="284" y="1704"/>
			<point x="285" y="1707"/>
			<point x="285" y="1710" type="curve" smooth="yes"/>
			<point x="285" y="1722"/>
			<point x="276" y="1731"/>
			<point x="264" y="1731" type="curve" smooth="yes"/>
			<point x="256" y="1731"/>
			<point x="249" y="1726"/>
		</contour>
	</outline>
</glyph>
<glyph name="uni0327" format="2">
	<advance width="0"/>
	<unicode hex="0327"/>
	<anchor x="0" y="0" name="_bottom"/>
	<anchor x="0" y="-383" name="bottom"/>
	<outline>
		<contour>
			<point x="-13" y="-377" type="curve" smooth="yes"/>
			<point x="-4" y="-377"/>
			<point x="4" y="-371"/>
			<point x="7" y="-362" type="curve" smooth="yes"/>
			<point x="92" y="-108" type="line" smooth="yes"/>
			<point x="96" y="-96"/>
			<point x="87" y="-81"/>
			<point x="72" y="-81" type="curve" smooth="yes"/>
			<point x="63" y="-81"/>
			<point x="55" y="-87"/>
			<point x="52" y="-96" type="curve" smooth="yes"/>
			<point x="-33" y="-350" type="line" smooth="yes"/>
			<point x="-37" y="-362"/>
			<point x="-28" y="-377"/>
		</contour>
	</outline>
</glyph>
<glyph name="dagger" format="2">
	<advance width="811"/>
	<unicode hex="2020"/>
	<outline>
		<contour>
			<point x="110" y="1101" type="curve" smooth="yes"/>
			<point x="258" y="1101" type="line" smooth="yes"/>
			<point x="271" y="1101"/>
			<point x="283" y="1112"/>
			<point x="283" y="1126" type="curve" smooth="yes"/>
			<point x="283" y="1140"/>
			<point x="271" y="1151"/>
			<point x="258" y="1151" type="curve" smooth="yes"/>
			<point x="110" y="1151" type="line" smooth="yes"/>
			<point x="96" y="1151"/>
			<point x="85" y="1140"/>
			<point x="85" y="1126" type="curve" smooth="yes"/>
			<point x="85" y="1112"/>
			<point x="96" y="1101"/>
		</contour>
		<contour>
			<point x="430" y="559" type="curve" smooth="yes"/>
			<point x="430" y="1375" type="line" smooth="yes"/>
			<point x="430" y="1388"/>
			<point x="419" y="1400"/>
			<point x="405" y="1400" type="curve" smooth="yes"/>
			<point x="391" y="1400"/>
			<point x="380" y="1388"/>
			<point x="380" y="1375" type="curve" smooth="yes"/>
			<point x="380" y="559" type="line" smooth="yes"/>
			<point x="380" y="545"/>
			<point x="391" y="534"/>
			<point x="405" y="534" type="curve" smooth="yes"/>
			<point x="419" y="534"/>
			<point x="430" y="545"/>
		</contour>
		<contour>
			<point x="553" y="1101" type="curve" smooth="yes"/>
			<point x="701" y="1101" type="line" smooth="yes"/>
			<point x="714" y="1101"/>
			<point x="726" y="1112"/>
			<point x="726" y="1126" type="curve" smooth="yes"/>
			<point x="726" y="1140"/>
			<point x="714" y="1151"/>
			<point x="701" y="1151" type="curve" smooth="yes"/>
			<point x="553" y="1151" type="line" smooth="yes"/>
			<point x="539" y="1151"/>
			<point x="528" y="1140"/>
			<point x="528" y="1126" type="curve" smooth="yes"/>
			<point x="528" y="1112"/>
			<point x="539" y="1101"/>
		</contour>
	</outline>
</glyph>
<glyph name="fraction" format="2">
	<advance width="346"/>
	<unicode hex="2044"/>
	<outline>
		<contour>
			<point x="719" y="1382" type="curve"/>
			<point x="-410" y="52" type="line" smooth="yes"/>
			<point x="-413" y="48"/>
			<point x="-415" y="42"/>
			<point x="-415" y="36" type="curve" smooth="yes"/>
			<point x="-415" y="22"/>
			<point x="-404" y="11"/>
			<point x="-390" y="11" type="curve" smooth="yes"/>
			<point x="-384" y="11"/>
			<point x="-378" y="14"/>
			<point x="-373" y="18" type="curve"/>
			<point x="756" y="1348" type="line" smooth="yes"/>
			<point x="759" y="1352"/>
			<point x="761" y="1358"/>
			<point x="761" y="1364" type="curve" smooth="yes"/>
			<point x="761" y="1378"/>
			<point x="750" y="1389"/>
			<point x="736" y="1389" type="curve" smooth="yes"/>
			<point x="730" y="1389"/>
			<point x="724" y="1386"/>
		</contour>
	</outline>
</glyph>
<glyph name="uni2074" format="2">
	<advance width="468"/>
	<unicode hex="2074"/>
	<outline>
		<contour>
			<point x="256" y="871" type="curve" smooth="yes"/>
			<point x="63" y="871" type="line"/>
			<point x="63" y="821" type="line"/>
			<point x="256" y="821" type="line" smooth="yes"/>
			<point x="270" y="821"/>
			<point x="281" y="832"/>
			<point x="281" y="846" type="curve" smooth="yes"/>
			<point x="281" y="860"/>
			<point x="270" y="871"/>
		</contour>
		<contour>
			<point x="355" y="1177" type="curve" smooth="yes"/>
			<point x="355" y="650" type="line" smooth="yes"/>
			<point x="355" y="636"/>
			<point x="366" y="625"/>
			<point x="380" y="625" type="curve" smooth="yes"/>
			<point x="394" y="625"/>
			<point x="405" y="636"/>
			<point x="405" y="650" type="curve" smooth="yes"/>
			<point x="405" y="1177" type="line" smooth="yes"/>
			<point x="405" y="1191"/>
			<point x="394" y="1202"/>
			<point x="380" y="1202" type="curve" smooth="yes"/>
			<point x="366" y="1202"/>
			<point x="355" y="1191"/>
		</contour>
		<contour>
			<point x="87" y="836" type="curve" smooth="yes"/>
			<point x="314" y="1365" type="line" smooth="yes"/>
			<point x="315" y="1368"/>
			<point x="316" y="1372"/>
			<point x="316" y="1375" type="curve" smooth="yes"/>
			<point x="316" y="1389"/>
			<point x="305" y="1400"/>
			<point x="291" y="1400" type="curve" smooth="yes"/>
			<point x="281" y="1400"/>
			<point x="272" y="1394"/>
			<point x="268" y="1386" type="curve" smooth="yes"/>
			<point x="41" y="856" type="line" smooth="yes"/>
			<point x="40" y="853"/>
			<point x="39" y="850"/>
			<point x="39" y="846" type="curve" smooth="yes"/>
			<point x="39" y="832"/>
			<point x="50" y="821"/>
			<point x="64" y="821" type="curve" smooth="yes"/>
			<point x="74" y="821"/>
			<point x="83" y="827"/>
		</contour>
	</outline>
</glyph>
<glyph name="uni2076" format="2">
	<advance width="468"/>
	<unicode hex="2076"/>
	<outline>
		<contour>
			<point x="234" y="674" type="curve" smooth="yes"/>
			<point x="160" y="674"/>
			<point x="100" y="734"/>
			<point x="100" y="808" type="curve" smooth="yes"/>
			<point x="100" y="882"/>
			<point x="160" y="942"/>
			<point x="234" y="942" type="curve" smooth="yes"/>
			<point x="308" y="942"/>
			<point x="368" y="882"/>
			<point x="368" y="808" type="curve" smooth="yes"/>
			<point x="368" y="734"/>
			<point x="308" y="674"/>
		</contour>
		<contour>
			<point x="234" y="624" type="curve" smooth="yes"/>
			<point x="336" y="624"/>
			<point x="418" y="706"/>
			<point x="418" y="808" type="curve" smooth="yes"/>
			<point x="418" y="910"/>
			<point x="336" y="992"/>
			<point x="234" y="992" type="curve" smooth="yes"/>
			<point x="132" y="992"/>
			<point x="50" y="910"/>
			<point x="50" y="808" type="curve" smooth="yes"/>
			<point x="50" y="706"/>
			<point x="132" y="624"/>
		</contour>
		<contour>
			<point x="280" y="1385" type="curve" smooth="yes"/>
			<point x="155" y="1113" type="line" smooth="yes"/>
			<point x="154" y="1110"/>
			<point x="153" y="1107"/>
			<point x="153" y="1103" type="curve" smooth="yes"/>
			<point x="153" y="1089"/>
			<point x="164" y="1078"/>
			<point x="178" y="1078" type="curve" smooth="yes"/>
			<point x="188" y="1078"/>
			<point x="197" y="1084"/>
			<point x="201" y="1093" type="curve" smooth="yes"/>
			<point x="325" y="1364" type="line"/>
			<point x="327" y="1367"/>
			<point x="328" y="1371"/>
			<point x="328" y="1375" type="curve" smooth="yes"/>
			<point x="328" y="1388"/>
			<point x="316" y="1400"/>
			<point x="303" y="1400" type="curve" smooth="yes"/>
			<point x="293" y="1400"/>
			<point x="284" y="1394"/>
		</contour>
	</outline>
</glyph>
<glyph name="uni2077" format="2">
	<advance width="468"/>
	<unicode hex="2077"/>
	<outline>
		<contour>
			<point x="193" y="625" type="curve" smooth="yes"/>
			<point x="205" y="625"/>
			<point x="215" y="633"/>
			<point x="217" y="643" type="curve" smooth="yes"/>
			<point x="421" y="1369" type="line" smooth="yes"/>
			<point x="425" y="1385"/>
			<point x="413" y="1400"/>
			<point x="397" y="1400" type="curve" smooth="yes"/>
			<point x="385" y="1400"/>
			<point x="375" y="1392"/>
			<point x="373" y="1382" type="curve" smooth="yes"/>
			<point x="169" y="656" type="line" smooth="yes"/>
			<point x="165" y="640"/>
			<point x="177" y="625"/>
		</contour>
		<contour>
			<point x="234" y="1400" type="curve" smooth="yes"/>
			<point x="89" y="1400" type="line" smooth="yes"/>
			<point x="75" y="1400"/>
			<point x="64" y="1389"/>
			<point x="64" y="1375" type="curve" smooth="yes"/>
			<point x="64" y="1361"/>
			<point x="75" y="1350"/>
			<point x="89" y="1350" type="curve" smooth="yes"/>
			<point x="234" y="1350" type="line" smooth="yes"/>
			<point x="247" y="1350"/>
			<point x="259" y="1361"/>
			<point x="259" y="1375" type="curve" smooth="yes"/>
			<point x="259" y="1389"/>
			<point x="247" y="1400"/>
		</contour>
	</outline>
</glyph>
<glyph name="trademark" format="2">
	<advance width="1409"/>
	<unicode hex="2122"/>
	<outline>
		<contour>
			<point x="324" y="1375" type="line"/>
			<point x="324" y="756" type="line" smooth="yes"/>
			<point x="324" y="742"/>
			<point x="335" y="731"/>
			<point x="349" y="731" type="curve" smooth="yes"/>
			<point x="363" y="731"/>
			<point x="374" y="742"/>
			<point x="374" y="756" type="curve" smooth="yes"/>
			<point x="374" y="1375" type="line"/>
		</contour>
		<contour>
			<point x="110" y="1350" type="curve" smooth="yes"/>
			<point x="349" y="1350" type="line" smooth="yes"/>
			<point x="362" y="1350"/>
			<point x="374" y="1361"/>
			<point x="374" y="1375" type="curve" smooth="yes"/>
			<point x="374" y="1389"/>
			<point x="362" y="1400"/>
			<point x="349" y="1400" type="curve" smooth="yes"/>
			<point x="110" y="1400" type="line" smooth="yes"/>
			<point x="96" y="1400"/>
			<point x="85" y="1389"/>
			<point x="85" y="1375" type="curve" smooth="yes"/>
			<point x="85" y="1361"/>
			<point x="96" y="1350"/>
		</contour>
		<contour>
			<point x="694" y="1377" type="curve" smooth="yes"/>
			<point x="694" y="756" type="line" smooth="yes"/>
			<point x="694" y="742"/>
			<point x="705" y="731"/>
			<point x="719" y="731" type="curve" smooth="yes"/>
			<point x="733" y="731"/>
			<point x="744" y="742"/>
			<point x="744" y="756" type="curve" smooth="yes"/>
			<point x="744" y="1377" type="line" smooth="yes"/>
			<point x="744" y="1390"/>
			<point x="733" y="1402"/>
			<point x="719" y="1402" type="curve" smooth="yes"/>
			<point x="705" y="1402"/>
			<point x="694" y="1390"/>
		</contour>
		<contour>
			<point x="485" y="1350" type="curve" smooth="yes"/>
			<point x="589" y="1350" type="line" smooth="yes"/>
			<point x="602" y="1350"/>
			<point x="614" y="1361"/>
			<point x="614" y="1375" type="curve" smooth="yes"/>
			<point x="614" y="1389"/>
			<point x="602" y="1400"/>
			<point x="589" y="1400" type="curve" smooth="yes"/>
			<point x="485" y="1400" type="line" smooth="yes"/>
			<point x="471" y="1400"/>
			<point x="460" y="1389"/>
			<point x="460" y="1375" type="curve" smooth="yes"/>
			<point x="460" y="1361"/>
			<point x="471" y="1350"/>
		</contour>
		<contour>
			<point x="1027" y="1082" type="curve" smooth="yes"/>
			<point x="739" y="1392" type="line" smooth="yes"/>
			<point x="734" y="1397"/>
			<point x="728" y="1400"/>
			<point x="720" y="1400" type="curve" smooth="yes"/>
			<point x="707" y="1400"/>
			<point x="695" y="1388"/>
			<point x="695" y="1375" type="curve" smooth="yes"/>
			<point x="695" y="1368"/>
			<point x="698" y="1362"/>
			<point x="702" y="1357" type="curve" smooth="yes"/>
			<point x="991" y="1048" type="line" smooth="yes"/>
			<point x="995" y="1043"/>
			<point x="1002" y="1040"/>
			<point x="1009" y="1040" type="curve" smooth="yes"/>
			<point x="1023" y="1040"/>
			<point x="1034" y="1051"/>
			<point x="1034" y="1065" type="curve" smooth="yes"/>
			<point x="1034" y="1072"/>
			<point x="1031" y="1078"/>
		</contour>
		<contour>
			<point x="1274" y="1377" type="curve" smooth="yes"/>
			<point x="1274" y="756" type="line" smooth="yes"/>
			<point x="1274" y="742"/>
			<point x="1285" y="731"/>
			<point x="1299" y="731" type="curve" smooth="yes"/>
			<point x="1313" y="731"/>
			<point x="1324" y="742"/>
			<point x="1324" y="756" type="curve" smooth="yes"/>
			<point x="1324" y="1377" type="line" smooth="yes"/>
			<point x="1324" y="1390"/>
			<point x="1313" y="1402"/>
			<point x="1299" y="1402" type="curve" smooth="yes"/>
			<point x="1285" y="1402"/>
			<point x="1274" y="1390"/>
		</contour>
	</outline>
</glyph>
<glyph name="summation" format="2">
	<advance width="1254"/>
	<unicode hex="2211"/>
	<outline>
		<contour>
			<point x="1159" y="50" type="curve" smooth="yes"/>
			<point x="110" y="50" type="line" smooth="yes"/>
			<point x="96" y="50"/>
			<point x="85" y="39"/>
			<point x="85" y="25" type="curve" smooth="yes"/>
			<point x="85" y="11"/>
			<point x="96" y="0"/>
			<point x="110" y="0" type="curve" smooth="yes"/>
			<point x="1159" y="0" type="line" smooth="yes"/>
			<point x="1172" y="0"/>
			<point x="1184" y="11"/>
			<point x="1184" y="25" type="curve" smooth="yes"/>
			<point x="1184" y="39"/>
			<point x="1172" y="50"/>
		</contour>
		<contour>
			<point x="647" y="714" type="curve" smooth="yes"/>
			<point x="129" y="1391" type="line" smooth="yes"/>
			<point x="125" y="1396"/>
			<point x="118" y="1400"/>
			<point x="110" y="1400" type="curve" smooth="yes"/>
			<point x="96" y="1400"/>
			<point x="85" y="1389"/>
			<point x="85" y="1375" type="curve" smooth="yes"/>
			<point x="85" y="1369"/>
			<point x="87" y="1364"/>
			<point x="90" y="1360" type="curve" smooth="yes"/>
			<point x="608" y="683" type="line" smooth="yes"/>
			<point x="612" y="678"/>
			<point x="619" y="674"/>
			<point x="627" y="674" type="curve" smooth="yes"/>
			<point x="641" y="674"/>
			<point x="652" y="685"/>
			<point x="652" y="699" type="curve" smooth="yes"/>
			<point x="652" y="705"/>
			<point x="650" y="710"/>
		</contour>
		<contour>
			<point x="1159" y="1400" type="curve" smooth="yes"/>
			<point x="110" y="1400" type="line" smooth="yes"/>
			<point x="96" y="1400"/>
			<point x="85" y="1389"/>
			<point x="85" y="1375" type="curve" smooth="yes"/>
			<point x="85" y="1361"/>
			<point x="96" y="1350"/>
			<point x="110" y="1350" type="curve" smooth="yes"/>
			<point x="1159" y="1350" type="line" smooth="yes"/>
			<point x="1172" y="1350"/>
			<point x="1184" y="1361"/>
			<point x="1184" y="1375" type="curve" smooth="yes"/>
			<point x="1184" y="1389"/>
			<point x="1172" y="1400"/>
		</contour>
	</outline>
</glyph>
<glyph name="minus" format="2">
	<advance width="981"/>
	<unicode hex="2212"/>
	<outline>
		<contour>
			<point x="70" y="676" type="curve" smooth="yes"/>
			<point x="900" y="676" type="line" smooth="yes"/>
			<point x="913" y="676"/>
			<point x="925" y="687"/>
			<point x="925" y="701" type="curve" smooth="yes"/>
			<point x="925" y="715"/>
			<point x="913" y="726"/>
			<point x="900" y="726" type="curve" smooth="yes"/>
			<point x="70" y="726" type="line" smooth="yes"/>
			<point x="56" y="726"/>
			<point x="45" y="715"/>
			<point x="45" y="701" type="curve" smooth="yes"/>
			<point x="45" y="687"/>
			<point x="56" y="676"/>
		</contour>
	</outline>
</glyph>
<glyph name="radical" format="2">
	<advance width="1520"/>
	<unicode hex="221A"/>
	<outline>
		<contour>
			<point x="346" y="0" type="curve" smooth="yes"/>
			<point x="357" y="0"/>
			<point x="367" y="8"/>
			<point x="370" y="19" type="curve" smooth="yes"/>
			<point x="655" y="928" type="line" smooth="yes"/>
			<point x="660" y="943"/>
			<point x="648" y="960"/>
			<point x="631" y="960" type="curve" smooth="yes"/>
			<point x="620" y="960"/>
			<point x="610" y="952"/>
			<point x="607" y="941" type="curve" smooth="yes"/>
			<point x="322" y="32" type="line" smooth="yes"/>
			<point x="317" y="17"/>
			<point x="329" y="0"/>
		</contour>
		<contour>
			<point x="344" y="2" type="curve" smooth="yes"/>
			<point x="365" y="2"/>
			<point x="374" y="25"/>
			<point x="367" y="39" type="curve" smooth="yes"/>
			<point x="132" y="535" type="line" smooth="yes"/>
			<point x="128" y="543"/>
			<point x="119" y="549"/>
			<point x="110" y="549" type="curve" smooth="yes"/>
			<point x="89" y="549"/>
			<point x="80" y="526"/>
			<point x="87" y="512" type="curve" smooth="yes"/>
			<point x="322" y="16" type="line" smooth="yes"/>
			<point x="326" y="8"/>
			<point x="335" y="2"/>
		</contour>
		<contour>
			<point x="1410" y="1400" type="curve" smooth="yes"/>
			<point x="753" y="1400" type="line" smooth="yes"/>
			<point x="739" y="1400"/>
			<point x="728" y="1389"/>
			<point x="728" y="1375" type="curve" smooth="yes"/>
			<point x="728" y="1361"/>
			<point x="739" y="1350"/>
			<point x="753" y="1350" type="curve" smooth="yes"/>
			<point x="1410" y="1350" type="line" smooth="yes"/>
			<point x="1423" y="1350"/>
			<point x="1435" y="1361"/>
			<point x="1435" y="1375" type="curve" smooth="yes"/>
			<point x="1435" y="1389"/>
			<point x="1423" y="1400"/>
		</contour>
	</outline>
</glyph>
<glyph name="infinity" format="2">
	<advance width="1873"/>
	<unicode hex="221E"/>
	<outline>
		<contour>
			<point x="471" y="300" type="curve" smooth="yes"/>
			<point x="286" y="300"/>
			<point x="135" y="451"/>
			<point x="135" y="637" type="curve" smooth="yes"/>
			<point x="135" y="651"/>
			<point x="124" y="662"/>
			<point x="110" y="662" type="curve" smooth="yes"/>
			<point x="96" y="662"/>
			<point x="85" y="651"/>
			<point x="85" y="637" type="curve" smooth="yes"/>
			<point x="85" y="423"/>
			<point x="258" y="250"/>
			<point x="471" y="250" type="curve" smooth="yes"/>
			<point x="485" y="250"/>
			<point x="496" y="261"/>
			<point x="496" y="275" type="curve" smooth="yes"/>
			<point x="496" y="289"/>
			<point x="485" y="300"/>
		</contour>
		<contour>
			<point x="512" y="1100" type="curve" smooth="yes"/>
			<point x="737" y="1100"/>
			<point x="912" y="924"/>
			<point x="912" y="700" type="curve" smooth="yes"/>
			<point x="912" y="452"/>
			<point x="1113" y="250"/>
			<point x="1362" y="250" type="curve" smooth="yes"/>
			<point x="1376" y="250"/>
			<point x="1387" y="261"/>
			<point x="1387" y="275" type="curve" smooth="yes"/>
			<point x="1387" y="289"/>
			<point x="1376" y="300"/>
			<point x="1362" y="300" type="curve" smooth="yes"/>
			<point x="1137" y="300"/>
			<point x="962" y="476"/>
			<point x="962" y="700" type="curve" smooth="yes"/>
			<point x="962" y="948"/>
			<point x="761" y="1150"/>
			<point x="512" y="1150" type="curve" smooth="yes"/>
			<point x="498" y="1150"/>
			<point x="487" y="1139"/>
			<point x="487" y="1125" type="curve" smooth="yes"/>
			<point x="487" y="1111"/>
			<point x="498" y="1100"/>
		</contour>
		<contour>
			<point x="1402" y="1099" type="curve" smooth="yes"/>
			<point x="1587" y="1099"/>
			<point x="1738" y="948"/>
			<point x="1738" y="762" type="curve" smooth="yes"/>
			<point x="1738" y="748"/>
			<point x="1749" y="737"/>
			<point x="1763" y="737" type="curve" smooth="yes"/>
			<point x="1777" y="737"/>
			<point x="1788" y="748"/>
			<point x="1788" y="762" type="curve" smooth="yes"/>
			<point x="1788" y="976"/>
			<point x="1615" y="1149"/>
			<point x="1402" y="1149" type="curve" smooth="yes"/>
			<point x="1388" y="1149"/>
			<point x="1377" y="1138"/>
			<point x="1377" y="1124" type="curve" smooth="yes"/>
			<point x="1377" y="1110"/>
			<point x="1388" y="1099"/>
		</contour>
	</outline>
</glyph>
<glyph name="notequal" format="2">
	<advance width="981"/>
	<unicode hex="2260"/>
	<outline>
		<contour>
			<point x="209" y="71" type="curve" smooth="yes"/>
			<point x="219" y="71"/>
			<point x="227" y="77"/>
			<point x="231" y="85" type="curve" smooth="yes"/>
			<point x="821" y="1293" type="line" smooth="yes"/>
			<point x="828" y="1308"/>
			<point x="817" y="1329"/>
			<point x="798" y="1329" type="curve" smooth="yes"/>
			<point x="788" y="1329"/>
			<point x="780" y="1323"/>
			<point x="776" y="1315" type="curve" smooth="yes"/>
			<point x="186" y="107" type="line" smooth="yes"/>
			<point x="179" y="92"/>
			<point x="190" y="71"/>
		</contour>
		<contour>
			<point x="89" y="430" type="curve" smooth="yes"/>
			<point x="189" y="430" type="line" smooth="yes"/>
			<point x="202" y="430"/>
			<point x="214" y="441"/>
			<point x="214" y="455" type="curve" smooth="yes"/>
			<point x="214" y="469"/>
			<point x="202" y="480"/>
			<point x="189" y="480" type="curve" smooth="yes"/>
			<point x="89" y="480" type="line" smooth="yes"/>
			<point x="75" y="480"/>
			<point x="64" y="469"/>
			<point x="64" y="455" type="curve" smooth="yes"/>
			<point x="64" y="441"/>
			<point x="75" y="430"/>
		</contour>
		<contour>
			<point x="424" y="969" type="curve" smooth="yes"/>
			<point x="89" y="969" type="line" smooth="yes"/>
			<point x="75" y="969"/>
			<point x="64" y="958"/>
			<point x="64" y="944" type="curve" smooth="yes"/>
			<point x="64" y="930"/>
			<point x="75" y="919"/>
			<point x="89" y="919" type="curve" smooth="yes"/>
			<point x="424" y="919" type="line" smooth="yes"/>
			<point x="437" y="919"/>
			<point x="449" y="930"/>
			<point x="449" y="944" type="curve" smooth="yes"/>
			<point x="449" y="958"/>
			<point x="437" y="969"/>
		</contour>
		<contour>
			<point x="584" y="430" type="curve" smooth="yes"/>
			<point x="919" y="430" type="line" smooth="yes"/>
			<point x="932" y="430"/>
			<point x="944" y="441"/>
			<point x="944" y="455" type="curve" smooth="yes"/>
			<point x="944" y="469"/>
			<point x="932" y="480"/>
			<point x="919" y="480" type="curve" smooth="yes"/>
			<point x="584" y="480" type="line" smooth="yes"/>
			<point x="570" y="480"/>
			<point x="559" y="469"/>
			<point x="559" y="455" type="curve" smooth="yes"/>
			<point x="559" y="441"/>
			<point x="570" y="430"/>
		</contour>
		<contour>
			<point x="919" y="969" type="curve" smooth="yes"/>
			<point x="819" y="969" type="line" smooth="yes"/>
			<point x="805" y="969"/>
			<point x="794" y="958"/>
			<point x="794" y="944" type="curve" smooth="yes"/>
			<point x="794" y="930"/>
			<point x="805" y="919"/>
			<point x="819" y="919" type="curve" smooth="yes"/>
			<point x="919" y="919" type="line" smooth="yes"/>
			<point x="932" y="919"/>
			<point x="944" y="930"/>
			<point x="944" y="944" type="curve" smooth="yes"/>
			<point x="944" y="958"/>
			<point x="932" y="969"/>
		</contour>
	</outline>
</glyph>
<glyph name="fl" format="2">
	<advance width="2191"/>
	<unicode hex="FB02"/>
	<anchor x="1083" y="0" name="caret_1"/>
	<outline>
		<contour>
			<point x="85" y="700" type="line"/>
			<point x="85" y="25" type="line" smooth="yes"/>
			<point x="85" y="11"/>
			<point x="96" y="0"/>
			<point x="110" y="0" type="curve" smooth="yes"/>
			<point x="124" y="0"/>
			<point x="135" y="11"/>
			<point x="135" y="25" type="curve" smooth="yes"/>
			<point x="135" y="700" type="line"/>
		</contour>
		<contour>
			<point x="814" y="725" type="curve" smooth="yes"/>
			<point x="110" y="725" type="line" smooth="yes"/>
			<point x="96" y="725"/>
			<point x="85" y="714"/>
			<point x="85" y="700" type="curve" smooth="yes"/>
			<point x="85" y="686"/>
			<point x="96" y="675"/>
			<point x="110" y="675" type="curve" smooth="yes"/>
			<point x="814" y="675" type="line" smooth="yes"/>
			<point x="827" y="675"/>
			<point x="839" y="686"/>
			<point x="839" y="700" type="curve" smooth="yes"/>
			<point x="839" y="714"/>
			<point x="827" y="725"/>
		</contour>
		<contour>
			<point x="2106" y="54" type="curve" smooth="yes"/>
			<point x="1136" y="54" type="line" smooth="yes"/>
			<point x="1122" y="54"/>
			<point x="1111" y="43"/>
			<point x="1111" y="29" type="curve" smooth="yes"/>
			<point x="1111" y="15"/>
			<point x="1122" y="4"/>
			<point x="1136" y="4" type="curve" smooth="yes"/>
			<point x="2106" y="4" type="line" smooth="yes"/>
			<point x="2119" y="4"/>
			<point x="2131" y="15"/>
			<point x="2131" y="29" type="curve" smooth="yes"/>
			<point x="2131" y="43"/>
			<point x="2119" y="54"/>
		</contour>
		<contour>
			<point x="110" y="1350" type="curve" smooth="yes"/>
			<point x="1139" y="1350" type="line"/>
			<point x="1139" y="1400" type="line"/>
			<point x="110" y="1400" type="line" smooth="yes"/>
			<point x="96" y="1400"/>
			<point x="85" y="1389"/>
			<point x="85" y="1375" type="curve" smooth="yes"/>
			<point x="85" y="1361"/>
			<point x="96" y="1350"/>
		</contour>
		<contour>
			<point x="1163" y="402" type="curve" smooth="yes"/>
			<point x="1163" y="1375" type="line" smooth="yes"/>
			<point x="1163" y="1388"/>
			<point x="1152" y="1400"/>
			<point x="1138" y="1400" type="curve" smooth="yes"/>
			<point x="1124" y="1400"/>
			<point x="1113" y="1388"/>
			<point x="1113" y="1375" type="curve" smooth="yes"/>
			<point x="1113" y="402" type="line" smooth="yes"/>
			<point x="1113" y="388"/>
			<point x="1124" y="377"/>
			<point x="1138" y="377" type="curve" smooth="yes"/>
			<point x="1152" y="377"/>
			<point x="1163" y="388"/>
		</contour>
	</outline>
</glyph>
